<ttFont>
<head>
    <!-- Most of this table will be recalculated by the compiler -->
    <tableVersion value="1.0"/>
    <fontRevision value="2.01"/>
    <checkSumAdjustment value="0xa1c9ee29"/>
    <magicNumber value="0x5f0f3cf5"/>
    <flags value="00000000 00000011"/>
    <unitsPerEm value="1000"/>
    <created value="Wed Feb  7 19:18:24 2018"/>
    <modified value="Wed Feb  7 19:18:24 2018"/>
    <xMin value="-411"/>
    <yMin value="-594"/>
    <xMax value="1756"/>
    <yMax value="910"/>
    <macStyle value="00000000 00000000"/>
    <lowestRecPPEM value="3"/>
    <fontDirectionHint value="2"/>
    <indexToLocFormat value="0"/>
    <glyphDataFormat value="0"/>
  </head>
          <CharString index="0">
            -107 callgsubr
            61 return
          </CharString>
          <CharString index="1">
            -47 callgsubr
            -105 callsubr
            return
          </CharString>
          <CharString index="2">
            -64 -19 28 41 hvcurveto
            186 vlineto
            42 19 27 64 vhcurveto
            8 11 85 callsubr
            return
          </CharString>
          <CharString index="3">
            50 callsubr
            -24 -23 4 5 -20 vhcurveto
            131 -62 -310 -71 callsubr
            return
          </CharString>
          <CharString index="4">
            -102 callsubr
            80 hvcurveto
            return
          </CharString>
          <CharString index="5">
            rmoveto
            46 -8 24 0 vhcurveto
            124 223 callsubr
            return
          </CharString>
          <CharString index="6">
            -95 callsubr
            180 vlineto
            46 -8 24 0 vhcurveto
            return
          </CharString>
          <CharString index="7">
            -96 callgsubr
            24 hhcurveto
            return
          </CharString>
          <CharString index="8">
            74 649 rmoveto
            -98 -54 97 -85 callsubr
            -96 return
          </CharString>
          <CharString index="9">
            62 -97 callgsubr
            return
          </CharString>
          <CharString index="10">
            -105 callgsubr
            -69 144 59 callsubr
            -68 vlineto
            return
          </CharString>
          <CharString index="11">
            -177 -86 callsubr
            -68 callgsubr
            return
          </CharString>
          <CharString index="12">
            -68 callsubr
            -177 vlineto
            -48 -25 76 callgsubr
            8 -29 vhcurveto
            -58 vlineto
            -7 26 24 -5 43 313 callgsubr
            86 hvcurveto
            return
          </CharString>
          <CharString index="13">
            -54 286 -461 vlineto
            -107 callsubr
            return
          </CharString>
          <CharString index="14">
            -90 callgsubr
            endchar
          </CharString>
          <CharString index="15">
            63 127 422 rmoveto
            57 25 40 70 69 26 -40 -57 vhcurveto
            -115 -190 vlineto
            238 -296 rmoveto
            -43 callsubr
            -114 -48 -67 -88 vhcurveto
            -279 vlineto
            -98 59 -51 128 53 37 7 9 28 vhcurveto
            return
          </CharString>
          <CharString index="16">
            252 callgsubr
            -25 29 47 hvcurveto
            172 vlineto
            42 25 34 68 return
          </CharString>
          <CharString index="17">
            rmoveto
            57 callsubr
            -28 -9 -15 -22 -21 9 -15 28 hvcurveto
            133 hmoveto
            57 callsubr
            -27 -10 -15 -22 -21 10 -15 27 hvcurveto
            return
          </CharString>
          <CharString index="18">
            -73 callgsubr
            -8 23 0 vhcurveto
            return
          </CharString>
          <CharString index="19">
            rmoveto
            -66 30 -36 54 -25 vhcurveto
            87 -41 rlineto
            51 -24 13 -16 -38 vvcurveto
            -20 vlineto
            -49 -26 -29 -90 -47 -40 8 10 -29 vhcurveto
            -64 vlineto
            -9 29 38 -7 53 hhcurveto
            122 58 49 90 hvcurveto
            26 vlineto
            62 -36 34 -55 26 vhcurveto
            -86 42 rlineto
            -44 20 -15 17 46 vvcurveto
            26 vlineto
            52 17 26 86 42 39 -8 -10 28 vhcurveto
            63 vlineto
            9 -28 -42 8 -41 hhcurveto
            -122 -46 -48 -90 hvcurveto
            return
          </CharString>
          <CharString index="20">
            61 432 hlineto
            0 33 11 40 63 110 callgsubr
            -17 -27 -67 1 vhcurveto
            -57 vlineto
            1 10 -1 7 hhcurveto
            87 239 callsubr
            -40 -36 -11 0 vhcurveto
            106 285 54 return
          </CharString>
          <CharString index="21">
            vlineto
            -83 callsubr
            return
          </CharString>
          <CharString index="22">
            -595 -98 callsubr
            return
          </CharString>
          <CharString index="23">
            13 28 477 rmoveto
            -68 31 -41 56 -31 vhcurveto
            115 -63 rlineto
            42 -22 13 -22 -44 vvcurveto
            -43 vlineto
            -50 -32 -36 -87 -50 -51 11 12 -32 vhcurveto
            -65 vlineto
            -10 27 52 -10 55 hhcurveto
            127 60 55 89 hvcurveto
            54 vlineto
            63 -27 40 -55 29 vhcurveto
            -116 65 rlineto
            -42 23 -17 25 46 vvcurveto
            50 vlineto
            52 33 27 71 50 47 -7 -11 30 vhcurveto
            65 vlineto
            8 -27 -46 8 -55 hhcurveto
            -115 -57 -54 -86 hvcurveto
            return
          </CharString>
          <CharString index="24">
            -80 44 -41 88 87 43 41 80 vhcurveto
            return
          </CharString>
          <CharString index="25">
            0 13 -42 callgsubr
            -121 vlineto
            -55 -22 -33 -65 -22 -26 3 3 -18 vhcurveto
            return
          </CharString>
          <CharString index="26">
            -75 callgsubr
            25 -4 return
          </CharString>
          <CharString index="27">
            82 60 148 rmoveto
            -90 52 -68 116 115 53 68 90 vhcurveto
            375 vlineto
            90 -53 68 -115 -116 -52 -68 -90 vhcurveto
            268 -374 rmoveto
            -58 -28 -40 -72 -73 341 callsubr
            373 vlineto
            58 28 39 73 72 28 -39 -58 vhcurveto
            return
          </CharString>
          <CharString index="28">
            69 60 144 rmoveto
            -88 47 -66 114 114 47 66 88 vhcurveto
            279 208 callsubr
            -114 -47 -67 -88 vhcurveto
            255 -278 rmoveto
            -56 -24 -39 -70 -70 -24 39 56 vhcurveto
            277 vlineto
            57 24 39 70 70 24 -39 -57 vhcurveto
            return
          </CharString>
          <CharString index="29">
            -83 55 -48 99 37 24 3 6 26 vhcurveto
            -91 59 245 281 callgsubr
            -67 -28 29 46 hvcurveto
            171 -7 callgsubr
            138 265 callsubr
            return
          </CharString>
          <CharString index="30">
            vlineto
            -69 callsubr
            return
          </CharString>
          <CharString index="31">
            -95 299 callgsubr
            -131 vlineto
            -78 40 -41 95 96 40 41 78 vhcurveto
            195 return
          </CharString>
          <CharString index="32">
            vvcurveto
            -82 callgsubr
            17 vhcurveto
            -79 9 callsubr
            -6 vhcurveto
            -58 vlineto
            -1 7 9 0 8 hhcurveto
            87 35 112 callsubr
            -46 44 -94 138 callgsubr
            100 281 54 return
          </CharString>
          <CharString index="33">
            78 314 568 rmoveto
            -478 vlineto
            -1 -2 -39 -31 -57 hhcurveto
            -55 -28 30 58 hvcurveto
            422 -68 -428 vlineto
            -91 48 -51 93 62 45 27 2 3 vhcurveto
            -27 return
          </CharString>
          <CharString index="34">
            -177 vlineto
            95 callsubr
          </CharString>
          <CharString index="35">
            -54 286 -461 hlineto
            -103 callgsubr
            return
          </CharString>
          <CharString index="36">
            vlineto
            -76 callgsubr
            return
          </CharString>
          <CharString index="37">
            vlineto
            -104 callsubr
            return
          </CharString>
          <CharString index="38">
            -24 callsubr
            19 2 3 16 vhcurveto
            -87 callgsubr
            return
          </CharString>
          <CharString index="39">
            0 8 -42 callgsubr
            return
          </CharString>
          <CharString index="40">
            -41 callgsubr
            -58 hhcurveto
            return
          </CharString>
          <CharString index="41">
            rlineto
            37 4 23 23 63 hhcurveto
            24 19 -4 0 hvcurveto
            55 vlineto
            0 -21 4 -24 22 callgsubr
            return
          </CharString>
          <CharString index="42">
            rmoveto
            -44 -32 -19 -40 -13 hvcurveto
            17 -26 -37 10 -46 hhcurveto
            -115 -52 -58 -88 hvcurveto
            -79 vlineto
            -68 31 -51 68 -19 vhcurveto
            -28 -7 -22 -23 -35 vvcurveto
            -16 vlineto
            -56 44 -30 79 vhcurveto
            60 hlineto
            65 9 -25 -36 hvcurveto
            -9 vlineto
            -42 -29 -26 -90 vhcurveto
            -36 hlineto
            -70 -46 14 23 -39 hvcurveto
            -65 vlineto
            -17 30 52 -14 73 hhcurveto
            41 hlineto
            130 50 49 78 hvcurveto
            12 vlineto
            75 -39 41 -98 vhcurveto
            -58 hlineto
            -50 -17 15 32 37 20 17 38 hvcurveto
            0 vlineto
            113 52 58 88 hvcurveto
            79 vlineto
            39 -10 34 -22 25 vhcurveto
            8 12 15 6 19 hhcurveto
            34 66 hlineto
            return
          </CharString>
          <CharString index="43">
            50 callsubr
            -24 -23 4 5 -20 vhcurveto
            161 vlineto
            7 -49 -50 6 -47 hhcurveto
            -107 -53 -52 -80 hvcurveto
            -239 -63 callgsubr
            236 217 callgsubr
            25 31 -2 -3 28 vhcurveto
            -291 -71 callsubr
            return
          </CharString>
          <CharString index="44">
            266 callsubr
            -44 callgsubr
            return
          </CharString>
          <CharString index="45">
            -111 9 callsubr
            -5 vhcurveto
            -58 vlineto
            -1 6 9 0 8 hhcurveto
            88 34 112 callsubr
            -46 44 -94 138 callgsubr
            100 289 54 return
          </CharString>
          <CharString index="46">
            595 97 return
          </CharString>
          <CharString index="47">
            -39 -49 callsubr
            return
          </CharString>
          <CharString index="48">
            56 vlineto
            -12 -37 -33 -4 -54 hhcurveto
            -87 -32 31 50 hvcurveto
            56 -37 callgsubr
            return
          </CharString>
          <CharString index="49">
            125 361 671 rmoveto
            -344 vlineto
            1 -91 4 -72 1 -55 -21 56 -26 69 -32 84 -139 353 rcurveline
            -79 -671 66 344 hlineto
            -1 91 -4 71 -1 55 22 -56 25 -69 33 -84 139 -352 rcurveline
            80 671 hlineto
            return
          </CharString>
          <CharString index="50">
            -83 50 -32 callgsubr
            96 54 return
          </CharString>
          <CharString index="51">
            rmoveto
            31 callsubr
            -126 346 callsubr
            return
          </CharString>
          <CharString index="52">
            rmoveto
            -24 -23 4 5 -20 hvcurveto
            60 vlineto
            74 -32 51 -104 104 callgsubr
            vhcurveto
            101 355 vlineto
            50 callsubr
            vhcurveto
            return
          </CharString>
          <CharString index="53">
            -48 103 -44 callsubr
            return
          </CharString>
          <CharString index="54">
            -17 callgsubr
            -458 -54 295 -90 -74 hlineto
            150 callgsubr
            return
          </CharString>
          <CharString index="55">
            7 21 21 2 25 hhcurveto
            63 20 -28 -41 hvcurveto
            -180 vlineto
            -39 -12 -29 -55 -6 -7 0 1 return
          </CharString>
          <CharString index="56">
            -103 callgsubr
            -238 vlineto
            28 callgsubr
            25 -4 24 hhcurveto
            return
          </CharString>
          <CharString index="57">
            152 callgsubr
            35 205 callsubr
            101 54 return
          </CharString>
          <CharString index="58">
            -6 -6 callgsubr
            return
          </CharString>
          <CharString index="59">
            -97 -98 callsubr
            return
          </CharString>
          <CharString index="60">
            -27 -46 vhcurveto
            -196 -49 callgsubr
            return
          </CharString>
          <CharString index="61">
            272 callsubr
            -47 hhcurveto
            -94 119 callsubr
            -60 -27 -13 -83 vhcurveto
            -21 -128 hlineto
            -41 9 -32 14 -24 vhcurveto
            -11 -38 -47 -7 -37 -45 callgsubr
            return
          </CharString>
          <CharString index="62">
            hlineto
            -152 671 rlineto
            -96 hlineto
            -153 -671 rlineto
            68 hlineto
            41 189 rlineto
            182 hlineto
            return
          </CharString>
          <CharString index="63">
            58 44 10 7 25 vhcurveto
            return
          </CharString>
          <CharString index="64">
            63 vlineto
            -8 -28 -41 -9 -46 hhcurveto
            -90 -33 31 58 hvcurveto
            103 255 174 vlineto
            88 -47 67 -113 return
          </CharString>
          <CharString index="65">
            -72 -24 32 44 hvcurveto
            138 vlineto
            180 -144 rlineto
            -57 vlineto
            -4 -11 -29 -9 -44 hhcurveto
            325 318 callsubr
            141 rlineto
            35 6 27 24 62 hhcurveto
            endchar
          </CharString>
          <CharString index="66">
            -4 callgsubr
            67 271 96 vlineto
            2 3 0 2 hhcurveto
            98 -271 rlineto
            75 hlineto
            -107 283 rlineto
            59 22 27 51 67 vvcurveto
            97 97 callgsubr
            94 -248 rmoveto
            -59 -27 -34 -70 vhcurveto
            -91 281 91 hlineto
            69 28 -35 -58 hvcurveto
            return
          </CharString>
          <CharString index="67">
            -54 286 -461 vlineto
            -107 callgsubr
            vlineto
            return
          </CharString>
          <CharString index="68" raw="1">
            a6cb1e93 968a0b  
          </CharString>
          <CharString index="69">
            144 callsubr
            289 60 -222 248 193 60 -193 243 222 60 vlineto
            return
          </CharString>
          <CharString index="70">
            77 hlineto
            192 213 rlineto
            382 vmoveto
            -328 103 callsubr
            31 41 hvcurveto
            269 vlineto
            endchar
          </CharString>
          <CharString index="71">
            -46 -1 -26 -32 -70 hhcurveto
            -39 -41 8 9 -32 hvcurveto
            -59 vlineto
            -9 33 39 -6 40 hhcurveto
            106 52 52 82 hvcurveto
            45 119 311 callgsubr
            return
          </CharString>
          <CharString index="72">
            -28 callsubr
            -129 61 return
          </CharString>
          <CharString index="73">
            78 135 568 rmoveto
            -65 -568 68 481 hlineto
            15 33 33 11 38 hhcurveto
            47 29 -23 -52 hvcurveto
            -432 68 438 vlineto
            86 -53 46 -81 -47 -46 -18 -10 -24 vhcurveto
            return
          </CharString>
          <CharString index="74">
            rmoveto
            42 hlineto
            -50 107 rlineto
            -56 hlineto
            -51 -107 rlineto
            43 hlineto
            36 64 rlineto
            endchar
          </CharString>
          <CharString index="75">
            -48 99 36 25 6 4 14 vhcurveto
            return
          </CharString>
          <CharString index="76">
            hvcurveto
            122 vlineto
            return
          </CharString>
          <CharString index="77">
            219 540 359 rmoveto
            70 -31 46 -73 9 vhcurveto
            111 179 54 -639 -54 398 -112 vlineto
            -39 -6 -25 -16 -14 -27 rrcurveto
            34 -18 -34 19 -57 hhcurveto
            -95 -41 -48 -80 hvcurveto
            -236 vlineto
            -80 40 -48 95 57 35 18 34 18 vhcurveto
            11 -19 15 -14 22 -9 -81 -147 rcurveline
            66 hlineto
            71 137 rlineto
            2 3 0 2 2 3 0 2 hhcurveto
            72 -137 rlineto
            65 hlineto
            -80 147 rlineto
            49 18 20 41 59 vvcurveto
            -429 235 rmoveto
            42 13 33 63 64 16 -33 -42 vhcurveto
            -234 vlineto
            -42 -17 -33 -63 -64 -12 33 42 vhcurveto
            215 234 rmoveto
            42 16 33 64 63 13 -33 -42 vhcurveto
            -234 vlineto
            -42 -12 -33 -64 -63 -17 33 42 vhcurveto
            return
          </CharString>
          <CharString index="78">
            516 183 rmoveto
            -64 -14 27 42 hvcurveto
            31 callsubr
            -126 vlineto
            -42 -14 -27 -64 vhcurveto
            319 vmoveto
            -98 -39 -44 -80 hvcurveto
            238 callgsubr
            vhcurveto
            -168 -500 rmoveto
            57 vlineto
            -3 -18 -36 -2 -20 -94 callgsubr
            341 54 -674 -54 272 hlineto
            -9 callgsubr
            rlineto
            return
          </CharString>
          <CharString index="79">
            -79 49 -32 callsubr
            return
          </CharString>
          <CharString index="80">
            rmoveto
            177 callsubr
            290 callgsubr
            -28 0 vhcurveto
            60 hlineto
            0 -4 22 27 vvcurveto
            47 9 27 57 58 5 -28 -47 vhcurveto
            -52 253 callsubr
            return
          </CharString>
          <CharString index="81">
            -77 286 callsubr
            -515 vlineto
            -8 -28 -34 -7 -48 hhcurveto
            -75 49 callgsubr
            10 25 0 vhcurveto
            99 54 return
          </CharString>
          <CharString index="82">
            216 callsubr
            24 193 callsubr
            -24 166 callgsubr
          </CharString>
          <CharString index="83">
            53 callgsubr
            24 return
          </CharString>
          <CharString index="84">
            rmoveto
            346 162 -346 vlineto
            -41 -14 -32 -67 -68 -13 32 41 vhcurveto
            return
          </CharString>
          <CharString index="85">
            rmoveto
            -266 -284 rlineto
            81 hlineto
            101 107 75 81 12 19 3 7 rlinecurve
            -1 -10 -3 -56 -73 vvcurveto
            -30 60 596 96 54 -158 -226 -133 106 vlineto
            215 callsubr
            -28 4 -22 321 callsubr
            18 31 214 callgsubr
            return
          </CharString>
          <CharString index="86">
            hhcurveto
            -53 -38 -89 callgsubr
            -38 callgsubr
            145 vlineto
            39 21 31 62 16 return
          </CharString>
          <CharString index="87">
            58 vlineto
            -10 -32 -39 -7 -45 hhcurveto
            -70 -38 28 57 hvcurveto
            return
          </CharString>
          <CharString index="88">
            rmoveto
            -80 39 -44 96 34 24 3 6 21 93 callgsubr
            return
          </CharString>
          <CharString index="89">
            rmoveto
            -6 22 23 -3 36 313 callgsubr
            86 hvcurveto
            180 vlineto
            42 callsubr
            -1108 256 callsubr
            hlineto
            -35 callsubr
            433 vlineto
            7 23 34 2 23 hhcurveto
            65 11 -28 -42 hvcurveto
            -88 62 89 vlineto
            74 -32 51 -103 -25 -39 -3 -7 -19 vhcurveto
            107 587 -114 -285 -56 79 vlineto
            -68 callsubr
            -177 vlineto
            -48 -25 -31 -67 -31 -24 3 6 -25 vhcurveto
            -278 76 rmoveto
            14 callsubr
          </CharString>
          <CharString index="90">
            -84 -19 42 55 hvcurveto
            return
          </CharString>
          <CharString index="91">
            rmoveto
            44 21 29 69 vhcurveto
            117 150 90 54 return
          </CharString>
          <CharString index="92">
            vhcurveto
            -48 callsubr
            return
          </CharString>
          <CharString index="93">
            -373 -127 -334 rmoveto
            4 -2 -5 37 -10 hhcurveto
            -27 -1 -25 -10 -18 -14 rrcurveto
            -8 14 20 -4 24 hhcurveto
            8 10 -3 -1 11 hvcurveto
            -44 256 rmoveto
            -62 -18 -28 -45 -4 hvcurveto
            -16 -12 -6 -20 -1 -21 rrcurveto
            -22 -9 -63 20 -50 16 -25 74 hvcurveto
            3 2 1 1 1 1 rrcurveto
            -30 15 -12 29 39 vvcurveto
            57 vlineto
            10 0 9 1 8 vhcurveto
            9 12 17 5 24 hhcurveto
            56 14 -8 -36 hvcurveto
            -1 -3 -53 -4 -1 hvcurveto
            6 1 21 3 4 vvcurveto
            69 vlineto
            39 15 31 61 63 13 -32 -40 vhcurveto
            -46 vlineto
            -62 -10 -31 return
          </CharString>
          <CharString index="94">
            -54 hhcurveto
            -94 -44 -49 -80 hvcurveto
            return
          </CharString>
          <CharString index="95">
            74 352 callsubr
            -103 71 -38 94 89 41 23 17 30 vhcurveto
            293 -67 -251 vlineto
            -6 -10 -35 -15 -48 hhcurveto
            -62 -35 23 60 hvcurveto
            387 vlineto
            55 29 32 88 47 41 -9 -10 32 vhcurveto
            65 vlineto
            8 -28 -45 9 -48 hhcurveto
            -131 -53 -59 -88 hvcurveto
            return
          </CharString>
          <CharString index="96">
            -54 272 hlineto
            2 callsubr
            return
          </CharString>
          <CharString index="97">
            62 vlineto
            -9 -31 -44 -7 -42 hhcurveto
            -87 -24 31 50 hvcurveto
            394 vlineto
            51 24 31 87 42 42 -8 -9 31 vhcurveto
            63 vlineto
            8 -29 -41 8 -46 hhcurveto
            -123 -55 -54 -87 hvcurveto
            return
          </CharString>
          <CharString index="98">
            -41 -18 -32 -68 -67 -18 32 41 vhcurveto
            255 vlineto
            42 18 32 67 68 18 -32 -42 vhcurveto
            return
          </CharString>
          <CharString index="99">
            58 10 30 0 vhcurveto
            109 54 -259 -55 87 hlineto
            0 -9 -30 -57 vvcurveto
            return
          </CharString>
          <CharString index="100">
            vlineto
            194 callgsubr
            return
          </CharString>
          <CharString index="101">
            229 callsubr
            9 10 85 callsubr
            -94 -46 -44 -80 hvcurveto
            return
          </CharString>
          <CharString index="102">
            -28 callsubr
            55 vmoveto
            14 callsubr
          </CharString>
          <CharString index="103">
            rmoveto
            -5 59 6 vlineto
            74 -31 51 -103 -28 -31 -3 -7 -21 vhcurveto
            101 222 54 -590 -54 307 -435 vlineto
            -47 callgsubr
            -64 -19 28 42 hvcurveto
            159 -6 callsubr
            -157 vlineto
            -76 42 -43 85 -4 vhcurveto
            -151 -147 rlineto
            81 hlineto
            154 156 rlineto
            2 1 1 1 hhcurveto
            -110 61 210 callgsubr
            24 28 2 25 hhcurveto
            65 13 -27 -43 hvcurveto
            endchar
          </CharString>
          <CharString index="104">
            81 327 144 rmoveto
            -58 -28 -36 -72 -72 -28 36 58 vhcurveto
            64 vlineto
            58 28 39 72 72 28 -39 -58 vhcurveto
            -2 252 rmoveto
            -58 -26 -39 -72 -72 -25 39 58 vhcurveto
            67 vlineto
            58 25 36 72 72 26 -36 -58 vhcurveto
            -263 -66 rmoveto
            -60 23 -44 49 -23 vhcurveto
            -50 -23 -24 -44 -60 vvcurveto
            -63 vlineto
            -90 52 -64 115 116 52 64 90 vhcurveto
            63 vlineto
            60 -24 45 -51 22 vhcurveto
            50 23 22 44 60 vvcurveto
            66 vlineto
            90 -49 64 -116 -115 -50 -64 -90 vhcurveto
            endchar
          </CharString>
          <CharString index="105">
            30 11 17 24 23 193 callsubr
            -23 -24 219 callsubr
            return
          </CharString>
          <CharString index="106">
            177 callsubr
            -93 -33 -48 -84 -19 4 -29 0 vhcurveto
            60 hlineto
            0 -4 28 21 162 callgsubr
            -87 -100 hlineto
            -130 71 return
          </CharString>
          <CharString index="107">
            hhcurveto
            54 vlineto
            2 return
          </CharString>
          <CharString index="108">
            -100 -47 -40 -80 hvcurveto
            -7 323 callsubr
            5 hlineto
            65 17 -28 -39 hvcurveto
            -47 vlineto
            -41 -18 -26 -68 -27 -28 2 7 -26 vhcurveto
            72 -59 -217 59 return
          </CharString>
          <CharString index="109">
            -35 callgsubr
            92 callsubr
            return
          </CharString>
          <CharString index="110">
            rmoveto
            -37 -1 -21 -25 -38 hhcurveto
            -38 -21 25 37 -1 hvcurveto
            -49 hlineto
            -60 1 39 -47 69 hhcurveto
            69 39 47 60 1 hvcurveto
            return
          </CharString>
          <CharString index="111">
            -98 -39 -44 -80 hvcurveto
            -126 vlineto
            -88 39 -36 98 return
          </CharString>
          <CharString index="112">
            rmoveto
            194 callgsubr
            145 -427 -39 callgsubr
            -957 -54 799 -114 -678 29 callsubr
            endchar
          </CharString>
          <CharString index="113">
            rmoveto
            -4 -9 -37 -8 return
          </CharString>
          <CharString index="114">
            hmoveto
            308 callsubr
            64 110 callgsubr
            -18 -27 -67 1 vhcurveto
            -57 vlineto
            1 10 -1 7 hhcurveto
            88 41 268 callgsubr
            287 54 return
          </CharString>
          <CharString index="115">
            58 vlineto
            -9 -32 return
          </CharString>
          <CharString index="116">
            61 440 vlineto
            -52 callsubr
            return
          </CharString>
          <CharString index="117">
            203 callsubr
            -79 165 245 hlineto
            7 7 -27 -44 hvcurveto
            -67 vlineto
            -53 -21 -16 -61 -3 vhcurveto
            26 -13 -29 19 -56 hhcurveto
            return
          </CharString>
          <CharString index="118">
            -12 1 -10 hhcurveto
            return
          </CharString>
          <CharString index="119">
            427 rmoveto
            -201 vlineto
            -305 -275 -1 -2 rlineto
            84 hlineto
            118 104 65 57 37 35 3 8 rlinecurve
            -1 vlineto
            -1 -10 0 -113 -3 vvcurveto
            -26 60 -97 callgsubr
            -603 -54 446 -114 -325 281 callsubr
            -99 289 callgsubr
            -27 5 7 -29 vhcurveto
            -57 vlineto
            -7 26 24 -5 43 313 callgsubr
            86 hvcurveto
            101 -7 callsubr
            return
          </CharString>
          <CharString index="120">
            -23 -47 vvcurveto
            -46 27 callsubr
            return
          </CharString>
          <CharString index="121">
            -77 callgsubr
            endchar
          </CharString>
          <CharString index="122">
            18 39 597 rmoveto
            11 30 35 6 49 hhcurveto
            86 21 -34 -50 hvcurveto
            -65 vlineto
            -59 -20 -39 -72 vhcurveto
            -68 -62 68 hlineto
            72 24 -37 -59 hvcurveto
            -67 vlineto
            -52 -25 -33 -86 -50 -46 11 12 -31 vhcurveto
            -67 vlineto
            -9 26 47 -9 55 hhcurveto
            123 55 56 88 hvcurveto
            76 vlineto
            65 -26 40 -52 17 vhcurveto
            51 21 23 41 65 vvcurveto
            69 vlineto
            87 -52 56 -123 -52 -36 -6 -8 -26 vhcurveto
            endchar
          </CharString>
          <CharString index="123">
            hhcurveto
            45 38 9 4 10 hvcurveto
            49 callsubr
            return
          </CharString>
          <CharString index="124">
            rmoveto
            -51 -28 -15 -70 -71 -28 15 51 vhcurveto
            -60 -1 hlineto
            -89 56 -31 103 101 57 31 89 vhcurveto
            1 vlineto
            return
          </CharString>
          <CharString index="125">
            59 60 148 rmoveto
            -90 47 338 callgsubr
            47 68 90 vhcurveto
            128 vlineto
            93 -56 49 -94 -42 -37 -8 -14 -29 vhcurveto
            120 vlineto
            52 25 45 86 50 42 -8 -12 32 vhcurveto
            65 vlineto
            9 -26 -44 9 -55 hhcurveto
            -127 -50 -70 -87 hvcurveto
            258 -371 rmoveto
            -58 -23 -40 -73 -72 -23 40 58 vhcurveto
            185 vlineto
            14 24 39 10 38 hhcurveto
            58 32 -23 -61 hvcurveto
            endchar
          </CharString>
          <CharString index="126">
            29 callsubr
            180 vlineto
            46 -8 24 0 vhcurveto
            return
          </CharString>
          <CharString index="127">
            52 callsubr
            60 27 26 118 callgsubr
            return
          </CharString>
          <CharString index="128">
            vlineto
            -46 125 callsubr
            -18 -31 -47 vvcurveto
            return
          </CharString>
          <CharString index="129">
            -44 -12 -16 -38 -46 vvcurveto
            -49 vlineto
            -106 76 -42 109 55 70 16 15 40 vhcurveto
            -22 35 46 -8 48 hhcurveto
            265 callgsubr
            59 callgsubr
            -482 -54 vlineto
            endchar
          </CharString>
          <CharString index="130">
            -92 251 571 rmoveto
            -58 -19 -19 -28 -39 hvcurveto
            44 -65 -568 68 460 vlineto
            31 44 18 15 42 hhcurveto
            34 65 hlineto
            return
          </CharString>
          <CharString index="131">
            -47 rmoveto
            -4 79 vlineto
            146 124 48 43 28 34 11 16 rlinecurve
            65 vlineto
            -14 418 rmoveto
            -461 -54 461 hlineto
            1 -114 rmoveto
            -341 -56 111 hlineto
            -68 callsubr
            -111 289 callgsubr
            -27 4 8 -29 vhcurveto
            -58 vlineto
            -7 26 24 -4 43 313 callgsubr
            85 hvcurveto
            114 -7 callsubr
            168 hlineto
            return
          </CharString>
          <CharString index="132">
            6 6 23 59 callgsubr
            return
          </CharString>
          <CharString index="133">
            rmoveto
            -9 -32 -34 -9 -59 321 callgsubr
            131 vlineto
            -8 26 25 -6 38 hhcurveto
            98 244 callgsubr
            139 vlineto
            47 -7 23 0 vhcurveto
            91 54 -462 -54 308 hlineto
            0 9 -42 callgsubr
            -138 230 callsubr
            -68 -35 -25 7 7 -25 vhcurveto
            122 -61 -310 vlineto
            -97 66 -48 104 58 46 10 7 25 vhcurveto
            endchar
          </CharString>
          <CharString index="134">
            -258 -69 callgsubr
            return
          </CharString>
          <CharString index="135">
            8 34 671 rmoveto
            -60 245 vlineto
            -251 -551 rlineto
            -60 319 60 -247 vlineto
            252 552 rlineto
            59 vlineto
            return
          </CharString>
          <CharString index="136">
            -56 111 hlineto
            -101 callsubr
            298 hlineto
            0 9 -27 -45 vvcurveto
            -177 vlineto
            -48 -26 76 callgsubr
            8 -29 vhcurveto
            -58 vlineto
            -7 26 24 -5 43 313 callgsubr
            86 hvcurveto
            return
          </CharString>
          <CharString index="137">
            rmoveto
            -68 -186 -23 -65 -19 -57 -19 -56 rlinecurve
            -19 56 -18 57 -24 65 -69 186 rcurveline
            -70 hlineto
            165 -444 rlineto
            -227 68 227 vlineto
            165 444 rlineto
            return
          </CharString>
          <CharString index="138">
            126 36 callgsubr
            return
          </CharString>
          <CharString index="139">
            228 callsubr
            89 54 -440 63 callgsubr
            return
          </CharString>
          <CharString index="140">
            -98 callgsubr
            61 220 callsubr
            129 190 callgsubr
            97 54 return
          </CharString>
          <CharString index="141">
            rmoveto
            -67 callsubr
            -73 -39 84 callsubr
            return
          </CharString>
          <CharString index="142">
            vlineto
            -79 39 -41 96 96 39 41 79 vhcurveto
            return
          </CharString>
          <CharString index="143">
            hvcurveto
            74 -61 callgsubr
            return
          </CharString>
          <CharString index="144">
            vlineto
            43 16 -7 -44 hvcurveto
            -69 vlineto
            -134 89 -37 104 48 42 7 7 25 vhcurveto
            -99 return
          </CharString>
          <CharString index="145">
            rmoveto
            -39 -107 rlineto
            41 hlineto
            59 107 rlineto
            -146 hmoveto
            -39 -107 rlineto
            41 hlineto
            59 107 rlineto
            return
          </CharString>
          <CharString index="146">
            -54 745 -101 -307 -55 100 hlineto
            0 9 -26 -45 vvcurveto
            -170 264 callsubr
            -24 -40 7 7 -32 vhcurveto
            8 18 4 21 25 vvcurveto
            179 vlineto
            83 -44 45 -106 -105 25 callgsubr
            103 38 30 6 11 22 vhcurveto
            -9 30 69 -15 46 hhcurveto
            100 53 49 85 hvcurveto
            return
          </CharString>
          <CharString index="147">
            89 callgsubr
            5 53 0 1 2 vhcurveto
            55 -59 vlineto
            -17 callsubr
            196 vlineto
            41 14 32 63 64 13 -32 -41 vhcurveto
            -142 293 callsubr
            44 138 callsubr
            -44 vhcurveto
            -48 1 return
          </CharString>
          <CharString index="148">
            252 callgsubr
            -24 116 callsubr
            return
          </CharString>
          <CharString index="149">
            46 -8 24 0 101 callsubr
            return
          </CharString>
          <CharString index="150">
            190 callsubr
            32 52 23 vvcurveto
            17 -11 8 -15 vhcurveto
            endchar
          </CharString>
          <CharString index="151">
            206 callsubr
            94 157 callgsubr
            return
          </CharString>
          <CharString index="152">
            rmoveto
            -127 vlineto
            9 -19 -25 5 -32 hhcurveto
            -26 -33 -3 -7 -20 hvcurveto
            123 vlineto
            return
          </CharString>
          <CharString index="153">
            rmoveto
            58 -107 rlineto
            44 hlineto
            -38 107 rlineto
            endchar
          </CharString>
          <CharString index="154">
            45 62 671 rmoveto
            -348 vlineto
            7 76 26 4 41 hhcurveto
            72 20 -31 -59 hvcurveto
            -103 vlineto
            -50 -27 -34 -86 -48 -44 12 13 -34 vhcurveto
            -67 vlineto
            -10 31 41 -10 55 hhcurveto
            123 57 56 87 hvcurveto
            110 vlineto
            90 -45 59 -107 -26 -27 -1 -4 -30 vhcurveto
            216 219 63 vlineto
            endchar
          </CharString>
          <CharString index="155">
            291 callsubr
            -72 77 callsubr
            -51 vlineto
            -103 73 -43 return
          </CharString>
          <CharString index="156">
            -83 vlineto
            1 71 callsubr
            return
          </CharString>
          <CharString index="157">
            65 callsubr
            -67 return
          </CharString>
          <CharString index="158">
            59 vlineto
            -9 -31 -48 -8 return
          </CharString>
          <CharString index="159">
            -100 callgsubr
            21 31 return
          </CharString>
          <CharString index="160">
            -54 518 -461 vlineto
            -5 -16 -26 -5 -29 hhcurveto
            -64 -20 28 41 hvcurveto
            186 vlineto
            42 20 27 64 vhcurveto
            8 307 callsubr
            -13 1 -10 hhcurveto
            -37 -29 -7 -13 -22 hvcurveto
            7 -40 246 callsubr
            return
          </CharString>
          <CharString index="161">
            vlineto
            -80 47 -49 99 100 47 49 80 vhcurveto
            55 callsubr
            return
          </CharString>
          <CharString index="162">
            -61 hmoveto
            -9 callsubr
            return
          </CharString>
          <CharString index="163">
            -93 -76 hlineto
            -100 -47 -41 -83 hvcurveto
            return
          </CharString>
          <CharString index="164">
            28 10 15 21 22 -10 15 -28 return
          </CharString>
          <CharString index="165">
            -28 -41 vhcurveto
            -183 vlineto
            -42 return
          </CharString>
          <CharString index="166">
            rmoveto
            -68 callsubr
            return
          </CharString>
          <CharString index="167">
            rmoveto
            231 callsubr
            27 25 -2 -2 296 callgsubr
            93 31 28 6 4 16 vhcurveto
            -79 61 437 vlineto
            7 22 29 3 24 hhcurveto
            64 11 -29 -41 hvcurveto
            return
          </CharString>
          <CharString index="168">
            -107 347 290 rmoveto
            -271 -290 rlineto
            79 hlineto
            99 103 64 69 25 34 4 9 rlinecurve
            -157 380 rmoveto
            148 54 -362 -54 153 -233 hlineto
            314 callgsubr
            -1 6 19 -2 242 callsubr
            return
          </CharString>
          <CharString index="169">
            171 -197 vlineto
            -39 -12 -29 -55 -5 -7 0 1 -6 vhcurveto
            -57 vlineto
            -1 8 8 -1 8 hhcurveto
            89 34 54 71 hvcurveto
            198 86 54 return
          </CharString>
          <CharString index="170">
            -44 callsubr
            107 333 rmoveto
            -133 hlineto
            -89 callsubr
            137 hlineto
            endchar
          </CharString>
          <CharString index="171">
            -90 -89 hlineto
            -99 -44 -39 -79 hvcurveto
            -14 21 callsubr
            return
          </CharString>
          <CharString index="172">
            0 9 -78 callgsubr
            return
          </CharString>
          <CharString index="173">
            292 callgsubr
            61 11 -27 -41 vhcurveto
            return
          </CharString>
          <CharString index="174">
            62 132 callgsubr
            return
          </CharString>
          <CharString index="175">
            -130 rmoveto
            27 10 15 22 21 -10 16 -27 -28 -9 -16 -21 -22 9 -15 28 hvcurveto
            endchar
          </CharString>
          <CharString index="176">
            87 callgsubr
            -8 23 0 vhcurveto
            return
          </CharString>
          <CharString index="177">
            309 719 rmoveto
            -151 -96 vlineto
            -91 -62 -52 -97 hvcurveto
            -279 vlineto
            -91 48 -52 93 58 31 19 17 20 vhcurveto
            -33 67 719 vlineto
            -68 -626 rmoveto
            -17 -18 -34 -18 -46 hhcurveto
            -56 -27 28 58 hvcurveto
            274 vlineto
            59 34 29 63 vhcurveto
            84 hlineto
            return
          </CharString>
          <CharString index="178">
            138 -91 callsubr
            return
          </CharString>
          <CharString index="179">
            18 117 372 27 callgsubr
            106 callsubr
            return
          </CharString>
          <CharString index="180">
            257 rmoveto
            66 18 -27 -41 hvcurveto
            -44 vlineto
            -41 -23 -28 -68 -27 -28 2 7 -26 vhcurveto
            72 -59 -217 59 89 vlineto
            284 callsubr
            43 41 82 hvcurveto
            46 vlineto
            33 -10 24 -19 14 vhcurveto
            149 -260 -39 callgsubr
            return
          </CharString>
          <CharString index="181">
            -200 rmoveto
            1 -2 11 -27 -43 vvcurveto
            -141 0 callgsubr
            149 vlineto
            41 16 23 55 vhcurveto
            return
          </CharString>
          <CharString index="182">
            -85 55 -45 100 45 30 9 4 11 vhcurveto
            -83 264 callgsubr
            return
          </CharString>
          <CharString index="183">
            -54 279 hlineto
            0 14 -23 -46 vvcurveto
            -84 vlineto
            -41 -10 -35 -72 vhcurveto
            -63 -58 61 hlineto
            73 -1 11 -35 -42 vvcurveto
            -99 vlineto
            -49 -31 -28 -83 -39 -33 7 11 -35 vhcurveto
            -60 vlineto
            -10 35 30 -5 42 hhcurveto
            119 56 47 87 hvcurveto
            endchar
          </CharString>
          <CharString index="184">
            vlineto
            -45 6 callgsubr
            return
          </CharString>
          <CharString index="185">
            7 31 callgsubr
            return
          </CharString>
          <CharString index="186">
            rmoveto
            -50 -35 -26 -36 -30 vhcurveto
            -37 30 -35 26 50 vvcurveto
            return
          </CharString>
          <CharString index="187">
            -99 -44 -39 -79 hvcurveto
            -14 21 callsubr
            -57 vlineto
            -83 51 -52 118 46 49 4 8 41 vhcurveto
            54 vlineto
            -8 -48 -39 273 callsubr
            return
          </CharString>
          <CharString index="188">
            20 33 54 callgsubr
          </CharString>
          <CharString index="189">
            69 129 118 rmoveto
            92 vlineto
            44 18 33 74 73 18 -33 -44 vhcurveto
            -92 vlineto
            -44 -18 -32 -73 -74 -18 32 44 vhcurveto
            -153 477 rmoveto
            92 -179 hlineto
            295 callsubr
            return
          </CharString>
          <CharString index="190">
            38 24 3 6 26 hvcurveto
            -91 59 245 281 callgsubr
            -68 -27 29 46 hvcurveto
            171 205 callgsubr
            97 54 -599 -54 441 56 callsubr
            return
          </CharString>
          <CharString index="191">
            151 callgsubr
            161 -291 -98 callsubr
            return
          </CharString>
          <CharString index="192">
            -1 8 0 callsubr
            -8 11 callsubr
            return
          </CharString>
          <CharString index="193">
            168 callsubr
            41 58 callgsubr
            -44 50 -95 -40 -36 -11 0 vhcurveto
            106 285 54 return
          </CharString>
          <CharString index="194">
            6 269 callgsubr
            23 32 69 vhcurveto
            16 hlineto
            46 20 -15 -28 6 hvcurveto
            -111 vlineto
            -134 93 -72 callgsubr
            return
          </CharString>
          <CharString index="195">
            35 -105 rmoveto
            30 11 18 23 23 -11 17 -30 -29 -11 -17 -23 -23 11 -18 29 168 callgsubr
            return
          </CharString>
          <CharString index="196">
            73 309 353 rmoveto
            -57 -28 -30 -70 -71 -28 30 57 vhcurveto
            79 vlineto
            57 28 31 71 70 28 -31 -57 vhcurveto
            return
          </CharString>
          <CharString index="197">
            346 callsubr
            -26 -240 141 callsubr
            return
          </CharString>
          <CharString index="198">
            hlineto
            95 callsubr
          </CharString>
          <CharString index="199">
            60 callgsubr
            52 54 220 callgsubr
            return
          </CharString>
          <CharString index="200">
            rmoveto
            -156 hlineto
            78 355 rlineto
            return
          </CharString>
          <CharString index="201">
            27 -19 -35 18 -54 hhcurveto
            return
          </CharString>
          <CharString index="202">
            -83 callsubr
            -74 callgsubr
          </CharString>
          <CharString index="203">
            131 callgsubr
            -44 vvcurveto
            -35 vlineto
            return
          </CharString>
          <CharString index="204">
            28 60 60 11 -27 -41 vhcurveto
            return
          </CharString>
          <CharString index="205">
            30 28 6 4 return
          </CharString>
          <CharString index="206">
            16 vlineto
            80 -49 39 -68 -29 -21 -8 0 vhcurveto
            -53 vlineto
            0 15 8 28 38 25 -19 -48 vhcurveto
            -14 335 callgsubr
            35 44 vhcurveto
            164 vlineto
            42 18 26 67 vhcurveto
            125 147 return
          </CharString>
          <CharString index="207">
            189 callsubr
            -11 -18 -23 -23 11 -17 30 hvcurveto
            return
          </CharString>
          <CharString index="208">
            vhcurveto
            144 -427 -98 callsubr
            return
          </CharString>
          <CharString index="209">
            165 callgsubr
            -45 hhcurveto
            return
          </CharString>
          <CharString index="210">
            vlineto
            -6 -17 -29 -7 -37 hhcurveto
            -68 -23 return
          </CharString>
          <CharString index="211">
            -119 vlineto
            -45 17 -33 32 -19 vhcurveto
            -29 -20 -17 -32 -44 vvcurveto
            -41 vlineto
            -83 47 -47 102 103 45 48 83 vhcurveto
            268 -59 -92 vlineto
            -3 -15 -34 -7 -39 hhcurveto
            -67 -25 27 41 hvcurveto
            endchar
          </CharString>
          <CharString index="212">
            82 callgsubr
            endchar
          </CharString>
          <CharString index="213">
            -92 65 -50 103 47 42 7 9 28 vhcurveto
            -20 callsubr
            return
          </CharString>
          <CharString index="214">
            -346 vlineto
            -41 -14 -32 -67 -68 -13 32 41 vhcurveto
            346 vlineto
            endchar
          </CharString>
          <CharString index="215">
            rmoveto
            45 -7 24 -2 2 vhcurveto
            125 -429 hlineto
            -12 return
          </CharString>
          <CharString index="216">
            18 -30 -30 157 callsubr
            return
          </CharString>
          <CharString index="217">
            192 callsubr
            75 hlineto
            return
          </CharString>
          <CharString index="218">
            -20 29 45 hvcurveto
            138 vlineto
            return
          </CharString>
          <CharString index="219">
            53 71 hvcurveto
            183 vlineto
            80 return
          </CharString>
          <CharString index="220">
            -23 219 callsubr
            return
          </CharString>
          <CharString index="221">
            372 649 rmoveto
            -396 -54 396 hlineto
            -136 -203 rmoveto
            1 -2 11 -11 -43 vvcurveto
            -154 0 callgsubr
            146 vlineto
            41 16 23 55 vhcurveto
            return
          </CharString>
          <CharString index="222">
            -187 464 rmoveto
            187 -261 hlineto
            -187 174 rlineto
            95 -337 rmoveto
            -68 -27 31 41 hvcurveto
            203 vlineto
            187 -174 rlineto
            -85 vlineto
            -8 -24 -25 -8 -43 hhcurveto
            endchar
          </CharString>
          <CharString index="223">
            29 47 hvcurveto
            172 vlineto
            42 24 156 callgsubr
            return
          </CharString>
          <CharString index="224">
            -165 vlineto
            -430 vmoveto
            return
          </CharString>
          <CharString index="225">
            -6 -28 -20 -3 -36 hhcurveto
            return
          </CharString>
          <CharString index="226">
            66 callgsubr
            -69 144 rmoveto
            -65 callgsubr
            return
          </CharString>
          <CharString index="227">
            -27 -13 -83 vhcurveto
            -20 return
          </CharString>
          <CharString index="228">
            272 callsubr
            -46 hhcurveto
            -95 119 callsubr
            return
          </CharString>
          <CharString index="229">
            rmoveto
            -40 -198 rlineto
            34 hlineto
            18 34 44 95 37 vvcurveto
            21 -13 11 -20 vhcurveto
            -136 hmoveto
            -40 -198 rlineto
            35 hlineto
            18 34 43 95 37 vvcurveto
            21 -12 11 -21 vhcurveto
            endchar
          </CharString>
          <CharString index="230">
            256 callsubr
            vlineto
            -35 callsubr
            vlineto
            -61 143 callgsubr
            return
          </CharString>
          <CharString index="231">
            rmoveto
            172 -208 rlineto
            -21 -12 -23 -12 -46 hhcurveto
            -71 -20 29 45 hvcurveto
            182 15 rmoveto
            -170 205 rlineto
            19 12 24 12 43 hhcurveto
            68 23 -32 -43 hvcurveto
            endchar
          </CharString>
          <CharString index="232">
            17 -30 35 -16 vhcurveto
            -36 -16 return
          </CharString>
          <CharString index="233">
            218 callgsubr
            -18 30 return
          </CharString>
          <CharString index="234">
            13 24 23 hvcurveto
            return
          </CharString>
          <CharString index="235">
            -441 hlineto
            -5 -25 -39 -6 -46 hhcurveto
            -95 119 callsubr
            -51 -19 -17 -57 -4 vhcurveto
            return
          </CharString>
          <CharString index="236">
            -106 68 -44 107 57 42 9 6 27 vhcurveto
            57 vlineto
            -7 -34 -32 -8 -60 hhcurveto
            -73 -41 27 66 hvcurveto
            130 vlineto
            -5 22 27 -4 25 hhcurveto
            66 42 24 43 17 hvcurveto
            return
          </CharString>
          <CharString index="237">
            vlineto
            80 -40 45 -91 338 callsubr
            return
          </CharString>
          <CharString index="238">
            -80 50 -48 99 40 28 6 8 19 vhcurveto
            return
          </CharString>
          <CharString index="239">
            hhcurveto
            -2 hlineto
            -84 -42 -41 -80 hvcurveto
            -43 62 42 vlineto
            41 13 23 54 vhcurveto
            3 hlineto
            55 13 -23 -41 hvcurveto
            -108 -97 -54 97 -85 callsubr
            -97 return
          </CharString>
          <CharString index="240">
            28 302 568 rmoveto
            -127 -274 134 -294 rlineto
            75 hlineto
            -136 295 126 273 rlineto
            -304 151 rmoveto
            -719 67 719 vlineto
            return
          </CharString>
          <CharString index="241">
            19 21 54 6 42 0 -1 6 hvcurveto
            53 vlineto
            0 -18 0 -16 1 vhcurveto
            43 vlineto
            65 -33 41 -69 -37 -28 -15 -26 -17 vhcurveto
            22 -16 -30 -2 -42 hhcurveto
            endchar
          </CharString>
          <CharString index="242">
            169 147 callgsubr
            return
          </CharString>
          <CharString index="243">
            34 83 vvcurveto
            -295 -411 rmoveto
            179 callsubr
            return
          </CharString>
          <CharString index="244">
            hvcurveto
            138 vlineto
            182 -141 rlineto
            -45 -23 -26 -68 vhcurveto
            return
          </CharString>
          <CharString index="245">
            12 29 56 65 8 -29 return
          </CharString>
          <CharString index="246">
            -461 vlineto
            -47 callgsubr
            -64 -19 28 41 hvcurveto
            186 vlineto
            42 19 27 64 vhcurveto
            8 307 callsubr
            11 callsubr
            return
          </CharString>
          <CharString index="247">
            58 332 671 rmoveto
            -141 -336 147 -335 rlineto
            76 hlineto
            -150 337 142 334 rlineto
            -336 hmoveto
            -671 67 671 vlineto
            return
          </CharString>
          <CharString index="248">
            rmoveto
            -92 callgsubr
            return
          </CharString>
          <CharString index="249">
            67 -48 103 63 callsubr
          </CharString>
          <CharString index="250">
            196 634 -196 hlineto
            236 -185 rmoveto
            196 185 -196 hlineto
            return
          </CharString>
          <CharString index="251">
            23 -4 callgsubr
            return
          </CharString>
          <CharString index="252">
            0 vhcurveto
            62 hlineto
            0 return
          </CharString>
          <CharString index="253">
            -19 -11 -11 -20 -40 vvcurveto
            -132 vlineto
            297 callgsubr
            -104 55 154 callgsubr
            return
          </CharString>
          <CharString index="254">
            -7 vlineto
            -80 47 -41 97 vhcurveto
            -1 55 rmoveto
            -65 1 -16 25 40 vvcurveto
            6 vlineto
            41 17 24 66 vhcurveto
            141 146 128 -283 hlineto
            endchar
          </CharString>
          <CharString index="255">
            492 rmoveto
            188 callsubr
            237 callgsubr
            return
          </CharString>
          <CharString index="256">
            hhcurveto
            -17 callsubr
            196 vlineto
            41 14 32 63 64 13 -32 -41 vhcurveto
            -142 293 callsubr
            44 138 callsubr
            -44 vhcurveto
            return
          </CharString>
          <CharString index="257">
            263 callgsubr
            -11 -17 -23 -24 11 -17 30 hvcurveto
            return
          </CharString>
          <CharString index="258">
            rmoveto
            28 9 15 22 21 -9 16 -28 -27 -9 -16 -21 -22 9 -15 27 hvcurveto
            return
          </CharString>
          <CharString index="259">
            hhcurveto
            45 38 9 4 10 hvcurveto
            320 callsubr
            return
          </CharString>
          <CharString index="260">
            -54 77 -339 vlineto
            342 callsubr
            return
          </CharString>
          <CharString index="261">
            -80 43 -50 100 100 42 50 80 vhcurveto
            return
          </CharString>
          <CharString index="262">
            293 callgsubr
            -11 17 -30 return
          </CharString>
          <CharString index="263">
            158 callsubr
            72 54 return
          </CharString>
          <CharString index="264">
            -10 -18 192 callgsubr
            return
          </CharString>
          <CharString index="265">
            vlineto
            45 9 25 0 vhcurveto
            return
          </CharString>
          <CharString index="266">
            -54 153 -274 return
          </CharString>
          <CharString index="267">
            -50 rmoveto
            -70 -18 32 44 hvcurveto
            41 vlineto
            42 21 30 64 vhcurveto
            4 hlineto
            39 1 30 7 19 6 rrcurveto
            -127 vlineto
            -44 -18 -32 -71 vhcurveto
            return
          </CharString>
          <CharString index="268">
            -81 callgsubr
            25 hhcurveto
            51 36 13 24 return
          </CharString>
          <CharString index="269">
            36 callsubr
            178 -451 rmoveto
            -97 callgsubr
            return
          </CharString>
          <CharString index="270">
            hhcurveto
            96 40 41 78 hvcurveto
            195 129 vlineto
            endchar
          </CharString>
          <CharString index="271">
            243 callsubr
            vlineto
            -80 46 -54 109 return
          </CharString>
          <CharString index="272">
            -45 10 -35 44 -17 vhcurveto
            -44 return
          </CharString>
          <CharString index="273">
            -21 5 -31 hhcurveto
            -53 return
          </CharString>
          <CharString index="274">
            -55 245 callsubr
            return
          </CharString>
          <CharString index="275">
            308 callsubr
            63 18 58 callsubr
            -18 -27 -67 1 vhcurveto
            -57 vlineto
            1 10 -1 7 hhcurveto
            87 return
          </CharString>
          <CharString index="276">
            102 callgsubr
            66 vhcurveto
            return
          </CharString>
          <CharString index="277">
            -166 70 719 rmoveto
            -719 68 719 vlineto
            return
          </CharString>
          <CharString index="278">
            -81 callsubr
            24 hhcurveto
            return
          </CharString>
          <CharString index="279">
            -51 -79 hvcurveto
            -174 vlineto
            return
          </CharString>
          <CharString index="280" raw="1">
            d71d936e 1e510784 a5a386b6 f7cd1de1
            1ff74884 0a0b  
          </CharString>
          <CharString index="281">
            16 -17 -31 14 -41 hhcurveto
            -108 -44 -64 -88 hvcurveto
            -145 vlineto
            -89 48 -66 113 113 48 66 89 vhcurveto
            161 vlineto
            return
          </CharString>
          <CharString index="282">
            hhcurveto
            40 28 6 8 19 hvcurveto
            453 vmoveto
            342 callgsubr
            -16 -29 -7 -38 hhcurveto
            -68 -23 30 42 hvcurveto
            338 vlineto
            endchar
          </CharString>
          <CharString index="283">
            -3 -14 -26 -6 -31 hhcurveto
            -68 228 callgsubr
            return
          </CharString>
          <CharString index="284">
            44 178 callgsubr
            225 callsubr
            -92 return
          </CharString>
          <CharString index="285">
            10 -35 44 -16 vhcurveto
            return
          </CharString>
          <CharString index="286">
            -100 callsubr
            58 39 17 30 23 hvcurveto
            return
          </CharString>
          <CharString index="287">
            -23 -2 -21 hhcurveto
            189 callgsubr
            64 -38 callgsubr
            145 vlineto
            39 return
          </CharString>
          <CharString index="288">
            -236 39 callgsubr
          </CharString>
          <CharString index="289">
            109 callgsubr
            -452 200 callsubr
            return
          </CharString>
          <CharString index="290">
            182 -98 callgsubr
            61 220 callsubr
            return
          </CharString>
          <CharString index="291">
            198 callgsubr
            endchar
          </CharString>
          <CharString index="292">
            -108 35 callsubr
            172 vlineto
            return
          </CharString>
          <CharString index="293">
            8 240 callsubr
            -28 -42 hvcurveto
            return
          </CharString>
          <CharString index="294">
            125 rmoveto
            -72 111 callsubr
            return
          </CharString>
          <CharString index="295">
            324 callgsubr
            -100 -54 -45 -83 hvcurveto
            return
          </CharString>
          <CharString index="296">
            193 callgsubr
            18 -30 -30 return
          </CharString>
          <CharString index="297">
            rmoveto
            -27 336 callgsubr
            return
          </CharString>
          <CharString index="298">
            1 7 10 236 callgsubr
            return
          </CharString>
          <CharString index="299">
            256 callgsubr
            63 vhcurveto
            return
          </CharString>
          <CharString index="300">
            -11 17 -30 -30 -10 -17 return
          </CharString>
          <CharString index="301">
            vlineto
            -53 -25 -13 -74 vhcurveto
            -31 -52 hlineto
            -133 85 -37 104 43 44 6 5 32 vhcurveto
            -86 67 callsubr
            return
          </CharString>
          <CharString index="302">
            344 callsubr
            -47 348 callsubr
            7 9 1 8 hhcurveto
            return
          </CharString>
          <CharString index="303">
            vlineto
            -82 51 -41 95 -2 vhcurveto
            -156 -150 rlineto
            81 hlineto
            164 161 2 1 2 0 1 1 rlinecurve
            return
          </CharString>
          <CharString index="304">
            vhcurveto
            107 333 rmoveto
            -133 hlineto
            -73 callgsubr
            -7 23 0 vhcurveto
            136 hlineto
            return
          </CharString>
          <CharString index="305">
            -250 82 rmoveto
            196 vlineto
            208 -240 rlineto
            -18 -17 -36 -17 334 callsubr
            endchar
          </CharString>
          <CharString index="306">
            93 vlineto
            45 -16 35 -34 22 vhcurveto
            34 21 16 36 46 vvcurveto
            return
          </CharString>
          <CharString index="307">
            -54 195 239 callgsubr
            return
          </CharString>
          <CharString index="308">
            372 -16 callsubr
            return
          </CharString>
          <CharString index="309">
            vlineto
            73 -39 45 -79 9 vhcurveto
            89 207 54 -476 -54 207 -89 vlineto
            -80 -9 -37 -46 -72 vvcurveto
            return
          </CharString>
          <CharString index="310">
            -98 callgsubr
            140 54 rmoveto
            return
          </CharString>
          <CharString index="311">
            -97 127 671 rmoveto
            -116 -84 rlineto
            -77 vlineto
            127 92 rlineto
            -602 68 671 vlineto
            endchar
          </CharString>
          <CharString index="312">
            vlineto
            41 18 241 callgsubr
            return
          </CharString>
          <CharString index="313">
            rmoveto
            -42 -11 -23 254 callsubr
            return
          </CharString>
          <CharString index="314">
            hhcurveto
            -76 -46 23 69 hvcurveto
            return
          </CharString>
          <CharString index="315">
            vlineto
            88 -47 67 -114 return
          </CharString>
          <CharString index="316">
            4 -10 -38 9 return
          </CharString>
          <CharString index="317">
            198 125 rmoveto
            -71 319 callsubr
            -46 -23 -26 -67 vhcurveto
            return
          </CharString>
          <CharString index="318">
            rmoveto
            -67 callsubr
            -73 -39 -75 callgsubr
            24 -4 25 hhcurveto
            return
          </CharString>
          <CharString index="319">
            -82 -45 -51 -105 -46 -31 8 8 -21 vhcurveto
            57 vlineto
            -7 21 30 -9 46 hhcurveto
            70 19 32 47 hvcurveto
            return
          </CharString>
          <CharString index="320">
            154 callgsubr
            203 vlineto
            61 return
          </CharString>
          <CharString index="321">
            199 187 callsubr
            return
          </CharString>
          <CharString index="322">
            80 -41 254 callgsubr
            return
          </CharString>
          <CharString index="323">
            324 callsubr
            23 return
          </CharString>
          <CharString index="324">
            18 hlineto
            68 17 -27 return
          </CharString>
          <CharString index="325">
            -1 -1 -8 hvcurveto
            return
          </CharString>
          <CharString index="326">
            10 -17 30 hvcurveto
            return
          </CharString>
          <CharString index="327">
            54 rmoveto
            165 return
          </CharString>
          <CharString index="328">
            -99 48 99 49 45 -49 307 vlineto
            -48 -307 rmoveto
            -137 hlineto
            137 268 rlineto
            return
          </CharString>
          <CharString index="329">
            vlineto
            -32 -4 -18 -20 -55 hhcurveto
            266 callgsubr
            hvcurveto
            return
          </CharString>
          <CharString index="330">
            -441 hlineto
            -5 -25 -60 callsubr
            return
          </CharString>
          <CharString index="331">
            227 callsubr
            -131 vlineto
            return
          </CharString>
          <CharString index="332">
            271 callsubr
            57 257 callgsubr
            return
          </CharString>
          <CharString index="333">
            -429 hlineto
            -12 -21 -38 -11 -54 hhcurveto
            return
          </CharString>
          <CharString index="334">
            219 callgsubr
            -95 299 callgsubr
            return
          </CharString>
          <CharString index="335">
            vvcurveto
            69 callsubr
            return
          </CharString>
          <CharString index="336">
            vlineto
            42 19 27 64 vhcurveto
            return
          </CharString>
          <CharString index="337">
            vlineto
            -41 -18 -32 return
          </CharString>
          <CharString index="338">
            5 15 1 0 hvcurveto
            57 vlineto
            -68 -2 -19 27 42 vvcurveto
            238 217 callgsubr
            return
          </CharString>
          <CharString index="339">
            47 82 rmoveto
            -41 -208 rlineto
            40 hlineto
            22 42 47 98 37 vvcurveto
            21 -14 10 -20 vhcurveto
            return
          </CharString>
          <CharString index="340">
            329 callgsubr
            -30 126 callsubr
            hvcurveto
            return
          </CharString>
          <CharString index="341">
            rmoveto
            -26 120 callgsubr
            13 81 callsubr
          </CharString>
          <CharString index="342">
            -18 26 40 hvcurveto
            return
          </CharString>
          <CharString index="343">
            -69 248 callgsubr
            return
          </CharString>
          <CharString index="344">
            -95 66 callgsubr
            74 -7 callsubr
            return
          </CharString>
          <CharString index="345">
            rmoveto
            247 162 -247 vlineto
            -41 -13 -31 -68 -67 -14 31 41 vhcurveto
            endchar
          </CharString>
          <CharString index="346">
            41 164 callgsubr
            return
          </CharString>
          <CharString index="347">
            23 31 2 23 hhcurveto
            65 13 return
          </CharString>
          <CharString index="348">
            81 38 34 -6 -8 25 vhcurveto
            return
          </CharString>
          <CharString index="349">
            10 hhcurveto
            86 39 53 73 hvcurveto
            return
          </CharString>
          <CharString index="350">
            -54 77 -346 return
          </CharString>
          <CharString index="351">
            144 rmoveto
            0 return
          </CharString>
          <CharString index="352">
            -16 24 40 vhcurveto
            return
          </CharString>
          <CharString index="353">
            -38 4 -40 274 callsubr
            return
          </CharString>
          <CharString index="354">
            rmoveto
            -26 120 callgsubr
            13 20 33 53 22 vvcurveto
            17 -12 8 -15 vhcurveto
            return
          </CharString>
          <CharString index="355">
            rmoveto
            31 11 18 27 27 -11 17 -31 -31 -11 -17 -27 -27 11 -18 31 hvcurveto
            return
          </CharString>
          <CharString index="356">
            rmoveto
            155 callsubr
            -29 322 callsubr
            29 hvcurveto
            return
          </CharString>
          <CharString index="357">
            hhcurveto
            47 42 6 6 23 hvcurveto
            -97 return
          </CharString>
          <CharString index="358">
            30 10 288 callgsubr
            return
          </CharString>
          <CharString index="359">
            47 vlineto
            33 -10 23 -20 15 vhcurveto
            return
          </CharString>
          <CharString index="360">
            vlineto
            -79 -40 -16 -82 vhcurveto
            return
          </CharString>
          <CharString index="361">
            -63 -64 -11 24 41 vhcurveto
            return
          </CharString>
          <CharString index="362">
            353 callgsubr
            55 vhcurveto
            return
          </CharString>
          <CharString index="363">
            -54 78 -349 return
          </CharString>
          <CharString index="364">
            -42 31 60 hvcurveto
            return
          </CharString>
          <CharString index="365">
            hhcurveto
            113 52 33 87 hvcurveto
            16 vlineto
            81 -48 32 -92 vhcurveto
            -39 hlineto
            -58 return
          </CharString>
          <CharString index="366">
            vvcurveto
            269 callsubr
          </CharString>
          <CharString index="367">
            38 79 36 callsubr
            return
          </CharString>
          <CharString index="368">
            vlineto
            41 14 31 63 64 13 -31 -41 vhcurveto
            return
          </CharString>
          <CharString index="369">
            vlineto
            80 -39 44 -98 -98 -39 -44 -80 vhcurveto
            return
          </CharString>
          <CharString index="370">
            23 23 -10 17 -30 return
          </CharString>
          <CharString index="371">
            vlineto
            -47 -25 -31 -67 return
          </CharString>
          <CharString index="372">
            150 97 54 return
          </CharString>
          <CharString index="373">
            -17 -28 -21 hvcurveto
            return
          </CharString>
          <CharString index="374">
            -41 -45 -80 -24 5 -29 145 callsubr
            -5 28 24 vvcurveto
            40 return
          </CharString>
          <CharString index="375">
            58 hlineto
            -68 -2 -19 27 42 vvcurveto
            247 vlineto
            43 23 32 69 36 return
          </CharString>
          <CharString index="376">
            -14 21 callsubr
            endchar
          </CharString>
          <CharString index="377">
            207 callgsubr
            endchar
          </CharString>
          <CharString index="378">
            39 108 hvcurveto
            return
          </CharString>
          <CharString index="379">
            108 callgsubr
            -38 -6 return
          </CharString>
          <CharString index="380">
            -2 -48 hhcurveto
            -85 -23 34 46 hvcurveto
            57 vlineto
            41 21 25 68 vhcurveto
            return
          </CharString>
          <CharString index="381">
            hhcurveto
            -103 -57 -49 -83 hvcurveto
            -241 vlineto
            -76 39 -50 90 3 vhcurveto
            return
          </CharString>
          <CharString index="382">
            vlineto
            -24 callsubr
            18 2 3 16 vhcurveto
            55 vlineto
            -2 return
          </CharString>
          <CharString index="383">
            -93 -58 vlineto
            -101 -47 -46 -82 hvcurveto
            -236 vlineto
            -92 65 -50 103 return
          </CharString>
          <CharString index="384">
            -80 47 -43 94 98 callsubr
            16 vhcurveto
            -79 62 440 vlineto
            return
          </CharString>
          <CharString index="385">
            318 callgsubr
            vlineto
            endchar
          </CharString>
          <CharString index="386">
            -11 24 41 vhcurveto
            107 vlineto
            41 11 23 return
          </CharString>
          <CharString index="387">
            309 callgsubr
            101 return
          </CharString>
          <CharString index="388">
            -56 111 vlineto
            -68 callsubr
            return
          </CharString>
          <CharString index="389">
            -26 -18 -18 -26 -26 18 -18 26 hvcurveto
            return
          </CharString>
          <CharString index="390">
            -31 callgsubr
            -168 vlineto
            -41 return
          </CharString>
          <CharString index="391">
            -7 25 25 -2 36 hhcurveto
            104 return
          </CharString>
          <CharString index="392">
            vlineto
            -50 -19 -18 -57 -4 vhcurveto
            return
          </CharString>
          <CharString index="393">
            67 callsubr
            -158 return
          </CharString>
          <CharString index="394">
            74 -141 rlineto
            65 hlineto
            return
          </CharString>
          <CharString index="395">
            vlineto
            -53 -25 -13 -75 vhcurveto
            return
          </CharString>
          <CharString index="396">
            rmoveto
            -56 354 56 vlineto
            return
          </CharString>
          <CharString index="397">
            hhcurveto
            -68 -23 31 41 hvcurveto
            return
          </CharString>
          <CharString index="398">
            0 -7 -23 -47 vvcurveto
            return
          </CharString>
          <CharString index="399">
            36 77 hvcurveto
            1 vlineto
            return
          </CharString>
          <CharString index="400">
            62 142 vlineto
            return
          </CharString>
          <CharString index="401">
            vlineto
            -77 31 -32 56 -45 253 callgsubr
            84 76 return
          </CharString>
          <CharString index="402">
            -46 17 -36 34 -21 vhcurveto
            -34 -22 -17 -35 -45 vvcurveto
            -93 vlineto
            return
          </CharString>
          <CharString index="403">
            33 202 503 282 callgsubr
            return
          </CharString>
          <CharString index="404">
            vlineto
            -10 -29 -23 -4 -32 hhcurveto
            -66 -24 27 49 hvcurveto
            endchar
          </CharString>
          <CharString index="405">
            64 vhcurveto
            74 hlineto
            return
          </CharString>
          <CharString index="406">
            8 -29 -44 vhcurveto
            return
          </CharString>
          <CharString index="407">
            -105 hlineto
            328 callgsubr
            return
          </CharString>
          <CharString index="408">
            -116 331 callgsubr
            return
          </CharString>
          <CharString index="409">
            -54 304 -93 -78 hlineto
            -102 -48 -41 -83 hvcurveto
            155 return
          </CharString>
          <CharString index="410">
            316 callsubr
            vlineto
            return
          </CharString>
          <CharString index="411">
            -10 -34 -48 -8 -44 hhcurveto
            -69 -38 27 56 hvcurveto
            89 vlineto
            return
          </CharString>
          <CharString index="412">
            hlineto
            169 callsubr
            return
          </CharString>
          <CharString index="413">
            -148 40 353 rmoveto
            -56 150 56 vlineto
            endchar
          </CharString>
          <CharString index="414">
            11 -1 7 0 callsubr
            -7 return
          </CharString>
          <CharString index="415">
            60 432 hlineto
            0 33 11 40 return
          </CharString>
          <CharString index="416">
            -51 -90 hvcurveto
            -61 61 59 vlineto
            53 return
          </CharString>
          <CharString index="417">
            vhcurveto
            136 146 return
          </CharString>
          <CharString index="418">
            hvcurveto
            88 -135 rlineto
            return
          </CharString>
          <CharString index="419">
            27 68 vhcurveto
            137 return
          </CharString>
          <CharString index="420" raw="1">
            f880158f 0b  
          </CharString>
          <CharString index="421">
            438 252 rmoveto
            127 callgsubr
            return
          </CharString>
          <CharString index="422">
            rmoveto
            197 vlineto
            192 -202 rlineto
            -47 -10 -29 return
          </CharString>
          <CharString index="423">
            vlineto
            330 callgsubr
            return
          </CharString>
          <CharString index="424">
            -5 -28 -59 -15 -16 3 0 vhcurveto
            -54 vlineto
            0 14 return
          </CharString>
          <CharString index="425">
            vmoveto
            44 29 -9 -4 11 hvcurveto
            -187 vlineto
            -179 return
          </CharString>
          <CharString index="426">
            111 callsubr
            181 -140 rlineto
            return
          </CharString>
          <CharString index="427">
            -83 67 callsubr
            return
          </CharString>
          <CharString index="428">
            145 callsubr
            -4 return
          </CharString>
          <CharString index="429">
            353 callsubr
            11 -18 return
          </CharString>
          <CharString index="430">
            272 callgsubr
            98 vhcurveto
            return
          </CharString>
          <CharString index="431">
            rmoveto
            30 11 17 return
          </CharString>
          <CharString index="432">
            1 8 vlineto
            7 0 7 -1 7 vhcurveto
            221 return
          </CharString>
          <CharString index="433">
            -78 39 -41 96 96 39 41 78 vhcurveto
            195 return
          </CharString>
          <CharString index="434">
            25 26 -18 19 -26 -25 -19 -19 -26 -25 19 return
          </CharString>
          <CharString index="435">
            rlineto
            53 -18 -20 21 -46 hhcurveto
            -11 -10 -1 -1 return
          </CharString>
          <CharString index="436">
            -54 290 -93 -59 hlineto
            -100 -51 -43 -83 hvcurveto
            return
          </CharString>
          <CharString index="437">
            -17 -34 -44 -94 -38 vvcurveto
            -21 13 -11 20 vhcurveto
            return
          </CharString>
          <CharString index="438">
            vhcurveto
            -47 hlineto
            57 callgsubr
            return
          </CharString>
          <CharString index="439">
            339 rmoveto
            58 11 30 0 vhcurveto
            109 54 return
          </CharString>
          <CharString index="440">
            hlineto
            -76 callgsubr
            return
          </CharString>
          <CharString index="441">
            -60 208 callgsubr
            return
          </CharString>
          <CharString index="442">
            -59 hhcurveto
            -74 -20 35 43 hvcurveto
            return
          </CharString>
          <CharString index="443">
            hhcurveto
            -119 -44 35 96 hvcurveto
            return
          </CharString>
          <CharString index="444">
            154 -595 62 595 return
          </CharString>
          <CharString index="445">
            271 callgsubr
            vhcurveto
            return
          </CharString>
          <CharString index="446">
            rmoveto
            132 callgsubr
            return
          </CharString>
          <CharString index="447">
            338 595 rmoveto
            return
          </CharString>
          <CharString index="448">
            -28 40 58 vhcurveto
            return
          </CharString>
          <CharString index="449">
            -80 50 -48 101 return
          </CharString>
          <CharString index="450">
            -116 -258 return
          </CharString>
          <CharString index="451">
            hvcurveto
            -4 vlineto
            -15 44 rlineto
            53 -18 -20 21 return
          </CharString>
          <CharString index="452">
            130 -346 vlineto
            -80 43 -50 100 100 return
          </CharString>
          <CharString index="453">
            vlineto
            -42 -14 -27 -64 266 callgsubr
            vhcurveto
            return
          </CharString>
          <CharString index="454">
            -85 callsubr
            -97 hlineto
            0 return
          </CharString>
          <CharString index="455">
            hhcurveto
            -11 -9 218 callsubr
            -54 vlineto
            1 return
          </CharString>
          <CharString index="456">
            161 40 rlineto
            50 vlineto
            -161 -39 rlineto
            return
          </CharString>
          <CharString index="457">
            -17 -28 -20 hvcurveto
            94 callsubr
            return
          </CharString>
          <CharString index="458">
            56 callsubr
            endchar
          </CharString>
          <CharString index="459">
            60 136 rmoveto
            return
          </CharString>
          <CharString index="460">
            -11 -17 -23 -23 return
          </CharString>
        <CharString name=".notdef">
          378 176 hmoveto
          399 701 -399 hlineto
          59 -55 rmoveto
          281 -591 -281 hlineto
          endchar
        </CharString>
        <CharString name="A">
          63 350 hmoveto
          68 -45 callsubr
          -13 59 148 callgsubr
        </CharString>
        <CharString name="AE">
          284 354 248 rmoveto
          -165 hlineto
          165 373 rlineto
          -621 vmoveto
          288 60 -222 248 193 60 -193 243 222 60 -329 hlineto
          -305 -671 rlineto
          71 hlineto
          84 189 rlineto
          191 hlineto
          endchar
        </CharString>
        <CharString name="Aacute">
          63 350 hmoveto
          68 -45 callsubr
          -74 630 rmoveto
          -38 -107 rlineto
          44 hlineto
          58 107 rlineto
          -3 -571 148 callgsubr
        </CharString>
        <CharString name="Abreve">
          63 350 hmoveto
          68 -45 callsubr
          -13 59 93 callsubr
          60 216 3 callsubr
          endchar
        </CharString>
        <CharString name="Acircumflex">
          63 350 hmoveto
          68 -45 callsubr
          -13 59 93 callsubr
          39 109 -33 callsubr
        </CharString>
        <CharString name="Adieresis">
          63 150 728 -90 callsubr
          67 -728 rmoveto
          68 -45 callsubr
          -13 59 148 callgsubr
        </CharString>
        <CharString name="Agrave">
          63 350 hmoveto
          68 -45 callsubr
          -176 630 rmoveto
          58 -107 rlineto
          44 hlineto
          -38 107 rlineto
          99 -571 148 callgsubr
        </CharString>
        <CharString name="Amacron">
          63 350 hmoveto
          68 -45 callsubr
          -202 599 rmoveto
          -45 220 45 vlineto
          -31 -540 148 callgsubr
        </CharString>
        <CharString name="Aogonek">
          63 381 hmoveto
          -25 callgsubr
          1 -45 callsubr
          42 -189 rlineto
          -55 248 148 callgsubr
        </CharString>
        <CharString name="Aring">
          63 350 hmoveto
          68 -45 callsubr
          -91 541 rmoveto
          -22 -13 14 22 21 13 14 22 22 13 -14 -21 -22 -13 -14 -22 hvcurveto
          -37 vmoveto
          48 26 33 40 40 -26 32 -48 -47 -27 -32 -40 -40 27 -33 47 hvcurveto
          78 -445 148 callgsubr
        </CharString>
        <CharString name="Atilde">
          63 350 hmoveto
          68 -45 callsubr
          -13 59 93 callsubr
          79 207 -64 callgsubr
        </CharString>
        <CharString name="B">
          94 242 307 rmoveto
          70 28 -36 -58 hvcurveto
          -60 vlineto
          -58 -28 -36 -70 vhcurveto
          -105 248 hlineto
          99 304 rmoveto
          70 28 -35 -59 hvcurveto
          -56 vlineto
          -58 -28 -36 -70 vhcurveto
          -99 244 hlineto
          -67 -611 rmoveto
          176 hlineto
          109 52 60 92 hvcurveto
          59 vlineto
          62 -25 46 -56 19 vhcurveto
          52 20 23 45 60 vvcurveto
          56 vlineto
          91 -52 61 -109 vhcurveto
          -170 hlineto
          endchar
        </CharString>
        <CharString name="C">
          20 352 callsubr
          -88 55 -53 123 45 45 7 9 28 vhcurveto
          -10 callsubr
          endchar
        </CharString>
        <CharString name="CR">
          -373 endchar
        </CharString>
        <CharString name="Cacute">
          20 352 callsubr
          -88 55 -53 123 45 45 7 9 28 vhcurveto
          -10 callsubr
          181 284 -43 callgsubr
        </CharString>
        <CharString name="Ccaron">
          20 352 callsubr
          -88 55 -53 123 45 45 7 9 28 vhcurveto
          -10 callsubr
          202 284 -57 callgsubr
        </CharString>
        <CharString name="Ccedilla">
          20 352 callsubr
          -79 45 -51 98 -9 vhcurveto
          -14 -66 44 callgsubr
          8 35 rlineto
          43 45 7 9 28 hvcurveto
          -10 callsubr
          endchar
        </CharString>
        <CharString name="D">
          91 -4 callgsubr
          77 callgsubr
          552 286 callgsubr
          endchar
        </CharString>
        <CharString name="Dcaron">
          91 337 154 rmoveto
          -56 -26 -38 -71 vhcurveto
          -103 552 286 callgsubr
          -267 152 rmoveto
          -671 175 vlineto
          111 49 63 89 hvcurveto
          368 97 callgsubr
          17 148 -57 callgsubr
        </CharString>
        <CharString name="Dcroat">
          92 72 671 rmoveto
          -307 -61 -59 61 -305 77 callgsubr
          245 103 59 -103 248 286 callgsubr
          endchar
        </CharString>
        <CharString name="E">
          -38 callsubr
          endchar
        </CharString>
        <CharString name="Eacute">
          -38 callsubr
          -127 148 -43 callgsubr
        </CharString>
        <CharString name="Ecaron">
          -38 callsubr
          -107 148 -57 callgsubr
        </CharString>
        <CharString name="Ecircumflex">
          -38 callsubr
          -114 41 -33 callsubr
        </CharString>
        <CharString name="Edieresis">
          -38 callsubr
          -209 57 -90 callsubr
          endchar
        </CharString>
        <CharString name="Edotaccent">
          -38 callsubr
          -140 80 20 callgsubr
        </CharString>
        <CharString name="Egrave">
          -38 callsubr
          -224 148 46 callsubr
        </CharString>
        <CharString name="Emacron">
          -38 callsubr
          -254 117 106 callgsubr
        </CharString>
        <CharString name="Eogonek">
          144 callsubr
          252 vlineto
          -25 callgsubr
          1 60 -222 248 193 60 -193 243 222 60 hlineto
          endchar
        </CharString>
        <CharString name="Eth">
          92 72 671 rmoveto
          -312 -74 -59 74 -300 77 callgsubr
          240 110 59 -110 253 286 callgsubr
          endchar
        </CharString>
        <CharString name="Euro">
          31 67 136 rmoveto
          -88 55 -53 123 45 45 7 9 28 vhcurveto
          62 vlineto
          -9 -31 -44 -7 -42 hhcurveto
          -87 -24 31 50 hvcurveto
          111 156 50 -156 83 156 50 -156 100 vlineto
          51 24 31 87 42 42 -8 -9 31 vhcurveto
          63 vlineto
          8 -29 -41 8 -46 hhcurveto
          -123 -55 -54 -87 hvcurveto
          -103 -53 -50 53 -83 -53 -50 53 vlineto
          endchar
        </CharString>
        <CharString name="F">
          -4 -4 callgsubr
          68 295 202 61 -202 255 212 60 vlineto
          endchar
        </CharString>
        <CharString name="G">
          -12 callsubr
          endchar
        </CharString>
        <CharString name="Gbreve">
          -12 callsubr
          228 290 3 callsubr
          endchar
        </CharString>
        <CharString name="H">
          120 355 671 rmoveto
          -312 -217 312 -68 -671 68 299 217 -299 69 671 vlineto
          endchar
        </CharString>
        <CharString name="I">
          -166 -4 callgsubr
          68 671 vlineto
          endchar
        </CharString>
        <CharString name="Iacute">
          -166 -4 callgsubr
          68 671 vlineto
          -21 148 -43 callgsubr
        </CharString>
        <CharString name="Icircumflex">
          -166 -4 callgsubr
          68 671 vlineto
          7 41 -33 callsubr
        </CharString>
        <CharString name="Idieresis">
          -166 -4 callgsubr
          68 671 vlineto
          -102 57 -90 callsubr
          endchar
        </CharString>
        <CharString name="Idotaccent">
          -166 -4 callgsubr
          68 671 vlineto
          -37 80 20 callgsubr
        </CharString>
        <CharString name="Igrave">
          -166 -4 callgsubr
          68 671 vlineto
          -112 148 46 callsubr
        </CharString>
        <CharString name="Imacron">
          -166 -4 callgsubr
          68 671 vlineto
          -143 117 106 callgsubr
        </CharString>
        <CharString name="Iogonek">
          -166 -4 callgsubr
          32 vlineto
          -25 callgsubr
          671 vlineto
          endchar
        </CharString>
        <CharString name="J">
          71 671 rmoveto
          -475 vlineto
          -99 -14 -63 -22 -78 vhcurveto
          -30 -105 rlineto
          69 hlineto
          31 105 rlineto
          18 60 16 68 113 vvcurveto
          474 vlineto
          endchar
        </CharString>
        <CharString name="K">
          140 callsubr
          endchar
        </CharString>
        <CharString name="L">
          185 callgsubr
          endchar
        </CharString>
        <CharString name="Lacute">
          185 callgsubr
          -21 148 -43 callgsubr
        </CharString>
        <CharString name="Lcaron">
          -26 205 717 247 callsubr
          -162 -46 rmoveto
          -671 340 callgsubr
          612 vlineto
          endchar
        </CharString>
        <CharString name="Lslash">
          -25 72 671 rmoveto
          -336 vlineto
          -56 -29 rlineto
          -55 vlineto
          56 29 rlineto
          -280 340 callgsubr
          257 vlineto
          97 50 rlineto
          55 vlineto
          -97 -50 rlineto
          300 vlineto
          endchar
        </CharString>
        <CharString name="M">
          236 457 671 rmoveto
          -153 -424 -153 424 rlineto
          -81 -671 64 360 hlineto
          104 -7 94 0 vhcurveto
          141 -379 rlineto
          73 hlineto
          139 379 rlineto
          0 -5 -83 -116 vvcurveto
          -359 65 671 vlineto
          endchar
        </CharString>
        <CharString name="N">
          -58 callsubr
          endchar
        </CharString>
        <CharString name="NULL">
          -373 endchar
        </CharString>
        <CharString name="Nacute">
          -58 callsubr
          -162 148 -43 callgsubr
        </CharString>
        <CharString name="Ncaron">
          -58 callsubr
          -142 148 -57 callgsubr
        </CharString>
        <CharString name="Ntilde">
          -58 callsubr
          -98 139 -64 callgsubr
        </CharString>
        <CharString name="O">
          -80 callsubr
          endchar
        </CharString>
        <CharString name="OE">
          295 244 60 rmoveto
          -71 -26 38 56 hvcurveto
          365 vlineto
          56 26 37 71 vhcurveto
          106 -552 hlineto
          -111 -60 rmoveto
          400 60 -222 248 193 60 -193 243 222 60 -398 hlineto
          -110 -51 -62 -89 hvcurveto
          -368 vlineto
          -89 48 -63 111 vhcurveto
          endchar
        </CharString>
        <CharString name="Oacute">
          -80 callsubr
          -84 297 -43 callgsubr
        </CharString>
        <CharString name="Ocircumflex">
          82 328 149 rmoveto
          -58 -28 -40 -72 -73 341 callsubr
          373 vlineto
          58 28 39 73 72 28 -39 -58 vhcurveto
          -268 -374 rmoveto
          -90 52 -68 116 115 53 68 90 vhcurveto
          375 vlineto
          90 -53 68 -115 -116 -52 -68 -90 vhcurveto
          203 189 -33 callsubr
        </CharString>
        <CharString name="Odieresis">
          -80 callsubr
          -167 206 -90 callsubr
          endchar
        </CharString>
        <CharString name="Ograve">
          -80 callsubr
          -187 297 46 callsubr
        </CharString>
        <CharString name="Ohungarumlaut">
          -80 callsubr
          -41 297 38 callsubr
          endchar
        </CharString>
        <CharString name="Omacron">
          -80 callsubr
          -209 266 106 callgsubr
        </CharString>
        <CharString name="Oslash">
          82 60 148 rmoveto
          -34 8 -31 15 -26 vhcurveto
          -24 -57 rlineto
          52 hlineto
          8 19 rlineto
          -18 27 36 -11 46 hhcurveto
          115 53 68 90 hvcurveto
          375 vlineto
          35 -8 31 -16 25 vhcurveto
          24 57 rlineto
          -52 hlineto
          -8 -19 rlineto
          18 -27 -36 11 -45 hhcurveto
          -116 -52 -68 -90 hvcurveto
          67 -1 rmoveto
          58 28 39 73 39 26 -11 -20 16 vhcurveto
          -182 -428 rlineto
          101 -109 rmoveto
          -40 -26 12 20 -16 hvcurveto
          182 428 rlineto
          -362 vlineto
          -58 -28 -40 -72 vhcurveto
          endchar
        </CharString>
        <CharString name="Otilde">
          -80 callsubr
          -26 288 -64 callgsubr
        </CharString>
        <CharString name="P">
          65 -4 callgsubr
          68 232 93 vlineto
          109 52 62 89 hvcurveto
          137 97 callgsubr
          94 -285 rmoveto
          -58 -27 -36 -71 vhcurveto
          -89 319 89 hlineto
          71 27 -36 -58 hvcurveto
          endchar
        </CharString>
        <CharString name="Q">
          82 328 149 rmoveto
          -58 -28 -40 -72 -73 341 callsubr
          373 vlineto
          58 28 39 73 72 28 -39 -58 vhcurveto
          -268 -374 rmoveto
          -90 52 -68 116 16 14 1 3 13 vhcurveto
          86 -95 rlineto
          84 hlineto
          -107 118 rlineto
          42 28 20 48 55 vvcurveto
          375 vlineto
          90 -53 68 -115 -116 -52 -68 -90 vhcurveto
          endchar
        </CharString>
        <CharString name="R">
          83 -41 callsubr
          endchar
        </CharString>
        <CharString name="Racute">
          83 -4 callgsubr
          67 271 96 vlineto
          2 3 0 2 hhcurveto
          98 -271 rlineto
          75 hlineto
          -107 283 rlineto
          59 22 27 51 67 vvcurveto
          97 97 callgsubr
          12 148 rmoveto
          -38 -107 rlineto
          44 hlineto
          58 107 rlineto
          18 -396 rmoveto
          -59 -27 -34 -70 vhcurveto
          -91 281 91 hlineto
          69 28 -35 -58 hvcurveto
          endchar
        </CharString>
        <CharString name="Rcaron">
          83 -41 callsubr
          -65 301 -57 callgsubr
        </CharString>
        <CharString name="S">
          -84 callsubr
          endchar
        </CharString>
        <CharString name="Sacute">
          -84 callsubr
          181 283 -43 callgsubr
        </CharString>
        <CharString name="Scaron">
          -84 callsubr
          207 283 -57 callgsubr
        </CharString>
        <CharString name="T">
          100 callgsubr
          endchar
        </CharString>
        <CharString name="Tcaron">
          100 callgsubr
          -130 148 -57 callgsubr
        </CharString>
        <CharString name="Thorn">
          55 236 489 rmoveto
          71 27 -36 -58 hvcurveto
          -119 vlineto
          -58 -27 -35 -71 vhcurveto
          -90 306 hlineto
          -66 182 rmoveto
          -671 66 122 93 vlineto
          109 52 62 89 hvcurveto
          125 97 callgsubr
          -93 122 hlineto
          endchar
        </CharString>
        <CharString name="U">
          92 332 671 -59 callgsubr
          endchar
        </CharString>
        <CharString name="Uacute">
          92 332 671 -59 callgsubr
          -151 148 -43 callgsubr
        </CharString>
        <CharString name="Ucircumflex">
          92 332 671 -59 callgsubr
          -132 41 -33 callsubr
        </CharString>
        <CharString name="Udieresis">
          92 332 671 -59 callgsubr
          -235 57 -90 callsubr
          endchar
        </CharString>
        <CharString name="Ugrave">
          92 332 671 -59 callgsubr
          -248 148 46 callsubr
        </CharString>
        <CharString name="Uhungarumlaut">
          92 284 819 38 callsubr
          72 -148 -59 callgsubr
          endchar
        </CharString>
        <CharString name="Umacron">
          92 332 671 -59 callgsubr
          -278 117 106 callgsubr
        </CharString>
        <CharString name="Uogonek">
          92 332 671 rmoveto
          -522 vlineto
          -58 -27 -40 -73 -72 341 callsubr
          522 -67 -523 vlineto
          -90 52 -68 115 13 12 1 1 11 vhcurveto
          -24 -25 -16 -32 -33 vvcurveto
          -44 27 -23 54 vhcurveto
          14 46 -12 hlineto
          -25 -12 10 26 32 18 34 28 24 hvcurveto
          55 26 25 52 63 vvcurveto
          523 vlineto
          endchar
        </CharString>
        <CharString name="Uring">
          92 332 671 -59 callgsubr
          -165 22 -5 callgsubr
        </CharString>
        <CharString name="V">
          44 333 671 rmoveto
          -71 -335 -18 -90 -20 -105 -15 -74 rlinecurve
          -16 74 -20 104 -18 91 -72 335 rcurveline
          -70 hlineto
          147 -671 rlineto
          97 hlineto
          146 671 rlineto
          endchar
        </CharString>
        <CharString name="W">
          236 522 671 rmoveto
          -66 -408 rlineto
          -12 -70 -13 -106 0 vvcurveto
          0 -14 106 -11 70 vhcurveto
          -65 408 rlineto
          -71 hlineto
          -66 -407 rlineto
          -15 -89 -11 -89 0 vvcurveto
          0 -10 90 -14 87 vhcurveto
          -67 408 rlineto
          -66 hlineto
          112 -671 rlineto
          84 hlineto
          58 338 rlineto
          20 118 10 109 0 vvcurveto
          0 10 -106 21 -122 vhcurveto
          57 -337 rlineto
          83 hlineto
          112 671 rlineto
          endchar
        </CharString>
        <CharString name="X">
          16 302 671 rmoveto
          -107 -259 -108 259 rlineto
          -74 hlineto
          146 -336 -146 -335 rlineto
          74 hlineto
          108 257 107 -257 rlineto
          74 hlineto
          -147 335 147 336 rlineto
          endchar
        </CharString>
        <CharString name="Y">
          33 333 671 30 callsubr
          endchar
        </CharString>
        <CharString name="Yacute">
          33 333 671 30 callsubr
          -185 148 -43 callgsubr
        </CharString>
        <CharString name="Ydieresis">
          33 132 728 -90 callsubr
          68 -57 30 callsubr
          endchar
        </CharString>
        <CharString name="Z">
          28 callsubr
          endchar
        </CharString>
        <CharString name="Zacute">
          28 callsubr
          -148 148 -43 callgsubr
        </CharString>
        <CharString name="Zcaron">
          28 callsubr
          -122 148 -57 callgsubr
        </CharString>
        <CharString name="Zdotaccent">
          28 callsubr
          -164 80 20 callgsubr
        </CharString>
        <CharString name="a">
          -99 callgsubr
          endchar
        </CharString>
        <CharString name="aacute">
          -99 callgsubr
          -72 438 -43 callgsubr
        </CharString>
        <CharString name="abreve">
          -99 callgsubr
          -22 438 3 callsubr
          endchar
        </CharString>
        <CharString name="acircumflex">
          -99 callgsubr
          -43 331 -33 callsubr
        </CharString>
        <CharString name="acute">
          -23 162 719 -43 callgsubr
        </CharString>
        <CharString name="adieresis">
          -99 callgsubr
          -151 347 -90 callsubr
          endchar
        </CharString>
        <CharString name="ae">
          276 190 573 rmoveto
          -53 -51 -10 -9 -27 hvcurveto
          -64 vlineto
          10 29 51 10 49 hhcurveto
          86 20 -29 -50 hvcurveto
          -88 vlineto
          -141 -41 rlineto
          -84 -24 -36 -45 -68 vvcurveto
          -33 vlineto
          -85 44 -51 98 62 59 19 29 35 vhcurveto
          -32 29 51 -17 73 hhcurveto
          53 37 7 9 28 hvcurveto
          63 vlineto
          -8 -29 -40 -9 -47 hhcurveto
          -88 -38 30 59 hvcurveto
          103 259 174 208 callsubr
          -62 -44 -27 -28 -23 vhcurveto
          32 -26 -45 18 -68 hhcurveto
          105 -485 rmoveto
          -21 -26 -41 -15 -46 hhcurveto
          -61 -22 26 53 hvcurveto
          31 vlineto
          45 16 24 62 18 vhcurveto
          118 33 rlineto
          258 25 rmoveto
          -193 115 hlineto
          57 28 40 70 70 25 -40 -57 vhcurveto
          endchar
        </CharString>
        <CharString name="agrave">
          -99 callgsubr
          -168 438 46 callsubr
        </CharString>
        <CharString name="amacron">
          -99 callgsubr
          -197 407 106 callgsubr
        </CharString>
        <CharString name="ampersand">
          82 227 51 rmoveto
          -72 -34 40 58 hvcurveto
          69 vlineto
          56 24 41 69 vhcurveto
          118 -166 hlineto
          -58 -32 -40 -73 vhcurveto
          -173 421 rmoveto
          -62 25 -45 52 -20 vhcurveto
          -53 -19 -25 -45 -62 vvcurveto
          -71 vlineto
          -89 59 338 callgsubr
          55 68 89 vhcurveto
          167 42 60 -42 58 -66 -58 -120 vlineto
          -68 -22 39 59 hvcurveto
          51 vlineto
          50 24 38 96 49 44 -9 -11 32 vhcurveto
          66 vlineto
          9 -28 -45 9 -53 hhcurveto
          -132 -55 -62 -87 hvcurveto
          endchar
        </CharString>
        <CharString name="aogonek">
          52 59 490 rmoveto
          10 29 51 10 49 hhcurveto
          85 21 -29 -52 hvcurveto
          -88 vlineto
          -141 -39 rlineto
          -84 -24 -37 -45 -68 vvcurveto
          -33 vlineto
          -85 41 -51 98 66 30 21 24 28 vhcurveto
          -41 28 vlineto
          -25 callgsubr
          1 429 hlineto
          90 -47 54 -122 -53 -51 -9 -9 -28 vhcurveto
          235 -463 rmoveto
          -21 -25 -40 -19 -47 hhcurveto
          -62 -21 27 52 hvcurveto
          31 vlineto
          45 16 24 62 18 vhcurveto
          117 32 rlineto
          endchar
        </CharString>
        <CharString name="apostrophemod">
          -216 69 712 137 callgsubr
        </CharString>
        <CharString name="approxequal">
          84 358 315 303 callgsubr
          -23 -83 vvcurveto
          -14 3 -14 0 vhcurveto
          54 hlineto
          -10 58 43 10 50 -24 86 -38 rcurveline
          71 -31 75 23 83 vvcurveto
          15 -3 13 0 vhcurveto
          -54 148 303 callgsubr
          196 callgsubr
          -3 13 0 vhcurveto
          endchar
        </CharString>
        <CharString name="aring">
          -99 callgsubr
          -85 312 -5 callgsubr
        </CharString>
        <CharString name="asciicircum">
          -60 240 379 rmoveto
          65 hlineto
          -106 281 rlineto
          -89 hlineto
          -107 -281 rlineto
          65 hlineto
          86 247 rlineto
          endchar
        </CharString>
        <CharString name="asciitilde">
          46 338 393 rmoveto
          10 -58 -39 -11 -54 25 -86 38 rcurveline
          -69 31 -77 196 callgsubr
          -2 13 0 vhcurveto
          endchar
        </CharString>
        <CharString name="asterisk">
          120 219 783 rmoveto
          -101 vlineto
          -26 4 -19 5 -13 vhcurveto
          -11 9 -16 10 -25 8 -96 31 rcurveline
          -18 -56 97 -31 24 -8 18 -2 14 1 rlinecurve
          -12 -8 -13 -12 -15 -21 -60 -81 rcurveline
          47 -35 60 83 15 20 7 17 4 13 rlinecurve
          3 -14 8 -16 15 -21 60 -82 rcurveline
          47 35 -60 82 -15 20 -14 13 -11 7 rlinecurve
          14 -1 18 3 25 8 96 31 rcurveline
          -18 56 -97 -32 -24 -8 -16 -9 -11 -9 rlinecurve
          5 13 4 18 26 vvcurveto
          101 vlineto
          endchar
        </CharString>
        <CharString name="at">
          481 431 -112 rmoveto
          86 55 -86 hlineto
          -228 -69 125 205 206 68 125 229 230 68 -115 -206 -156 -39 -44 -56 -48 -23 22 56 hvcurveto
          227 vlineto
          73 -38 50 -94 -44 -44 -8 -9 -34 vhcurveto
          -54 vlineto
          12 51 30 6 41 hhcurveto
          61 14 -30 -41 hvcurveto
          -56 vlineto
          -106 -33 rlineto
          -69 -22 -46 -28 -75 vvcurveto
          -14 vlineto
          -73 45 -40 78 65 37 21 10 15 vhcurveto
          -30 18 35 -19 55 hhcurveto
          98 59 69 186 240 -92 136 -267 -262 -96 -146 -240 -239 92 -146 266 hvcurveto
          75 238 rmoveto
          0 -33 -29 -60 -42 -25 17 45 vhcurveto
          15 vlineto
          50 25 11 45 14 vhcurveto
          90 27 rlineto
          endchar
        </CharString>
        <CharString name="atilde">
          -99 callgsubr
          -9 429 -64 callgsubr
        </CharString>
        <CharString name="b">
          74 70 719 rmoveto
          -719 169 vlineto
          88 60 51 97 hvcurveto
          290 vlineto
          86 -53 47 -81 -46 -46 -16 -9 -24 vhcurveto
          173 vlineto
          182 -567 rmoveto
          -62 -35 -28 -61 vhcurveto
          -85 421 hlineto
          12 33 35 12 38 hhcurveto
          47 28 -23 -52 hvcurveto
          endchar
        </CharString>
        <CharString name="backslash">
          15 32 783 rmoveto
          270 -914 rlineto
          61 hlineto
          -270 914 rlineto
          endchar
        </CharString>
        <CharString name="bar">
          -166 77 801 rmoveto
          -950 53 950 vlineto
          endchar
        </CharString>
        <CharString name="braceleft">
          -24 198 654 rmoveto
          41 21 27 62 vhcurveto
          14 58 -16 hlineto
          -91 -50 -49 -78 hvcurveto
          -228 vlineto
          -44 -26 -28 -51 vhcurveto
          -2 -57 2 hlineto
          51 26 -28 -43 hvcurveto
          -229 vlineto
          -78 50 -49 91 vhcurveto
          16 58 -14 hlineto
          -62 -21 27 41 hvcurveto
          208 vlineto
          71 -17 42 -69 9 vhcurveto
          69 8 17 43 72 vvcurveto
          endchar
        </CharString>
        <CharString name="braceright">
          -25 286 353 rmoveto
          -50 -26 28 44 hvcurveto
          228 vlineto
          78 -51 49 -90 vhcurveto
          -17 -58 14 hlineto
          63 21 -27 -41 hvcurveto
          -206 vlineto
          -72 17 -43 68 -8 vhcurveto
          -68 -9 -17 -42 -71 vvcurveto
          -208 vlineto
          -41 -21 -27 -63 vhcurveto
          -14 -58 17 hlineto
          90 51 49 78 hvcurveto
          229 vlineto
          43 26 28 50 vhcurveto
          3 57 hlineto
          endchar
        </CharString>
        <CharString name="bracketleft">
          -80 81 783 rmoveto
          -914 182 54 -123 806 123 54 vlineto
          endchar
        </CharString>
        <CharString name="bracketright">
          -80 29 783 rmoveto
          -54 123 -806 -123 -54 182 914 vlineto
          endchar
        </CharString>
        <CharString name="breve">
          -23 235 719 3 callsubr
          endchar
        </CharString>
        <CharString name="brokenbar">
          -166 77 801 rmoveto
          -378 53 378 vlineto
          -53 -572 rmoveto
          -378 53 378 vlineto
          endchar
        </CharString>
        <CharString name="bullet">
          -103 135 254 rmoveto
          52 19 30 41 40 -19 31 -52 -54 -17 -31 -40 -41 17 -30 54 hvcurveto
          endchar
        </CharString>
        <CharString name="c">
          -3 352 callsubr
          -90 48 -51 119 46 34 7 7 27 vhcurveto
          -10 callgsubr
          endchar
        </CharString>
        <CharString name="cacute">
          -3 352 callsubr
          -90 48 -51 119 46 34 7 7 27 vhcurveto
          -10 callgsubr
          181 288 -43 callgsubr
        </CharString>
        <CharString name="caron">
          -23 211 719 -57 callgsubr
        </CharString>
        <CharString name="ccaron">
          -3 352 callsubr
          -90 48 -51 119 46 34 7 7 27 vhcurveto
          -10 callgsubr
          196 288 -57 callgsubr
        </CharString>
        <CharString name="ccedilla">
          -3 352 callsubr
          -80 38 -49 91 -10 vhcurveto
          -14 -66 44 callgsubr
          8 35 rlineto
          1 hlineto
          46 34 7 7 27 hvcurveto
          -10 callgsubr
          endchar
        </CharString>
        <CharString name="cedilla">
          -23 149 6 rmoveto
          -16 -75 44 callgsubr
          10 46 rlineto
          endchar
        </CharString>
        <CharString name="cent">
          27 202 653 rmoveto
          -82 vlineto
          -94 -9 -39 -50 -81 vvcurveto
          -295 vlineto
          -81 39 -49 94 -9 vhcurveto
          -75 61 74 vlineto
          33 2 26 5 21 6 rrcurveto
          63 vlineto
          -8 -26 -35 -7 -42 hhcurveto
          -84 -19 29 52 hvcurveto
          291 vlineto
          52 19 29 84 38 37 -5 -8 26 vhcurveto
          62 vlineto
          -20 6 -25 5 -32 2 rrcurveto
          81 vlineto
          endchar
        </CharString>
        <CharString name="circumflex">
          -23 211 612 -33 callsubr
        </CharString>
        <CharString name="colon">
          -173 73 344 248 callsubr
          -350 vmoveto
          90 callgsubr
        </CharString>
        <CharString name="comma">
          -230 232 callsubr
          endchar
        </CharString>
        <CharString name="copyright">
          313 344 hmoveto
          231 63 139 184 191 -51 135 -243 -240 -57 -138 -188 -187 62 -136 235 hvcurveto
          -118 270 rmoveto
          -77 32 -48 99 27 30 4 3 18 vhcurveto
          55 vlineto
          -6 -23 -18 -4 -34 hhcurveto
          -70 -4 32 42 hvcurveto
          107 vlineto
          41 4 33 70 33 19 -4 -6 22 vhcurveto
          54 vlineto
          4 -18 -29 3 -27 hhcurveto
          -99 -32 -47 -78 hvcurveto
          118 -324 rmoveto
          -207 -32 112 157 158 29 113 210 210 27 -111 -160 -154 -35 -115 -202 hvcurveto
          endchar
        </CharString>
        <CharString name="currency">
          87 320 297 rmoveto
          -58 -17 -33 -72 -73 -17 33 58 vhcurveto
          76 vlineto
          59 17 32 73 72 17 -32 -59 vhcurveto
          53 -240 rmoveto
          44 44 -45 43 rlineto
          10 22 4 25 29 vvcurveto
          78 vlineto
          29 -4 25 -9 22 vhcurveto
          44 43 -44 44 -40 -39 rlineto
          17 -24 -33 9 -45 hhcurveto
          -45 -34 -9 -17 -24 hvcurveto
          -40 39 -44 -44 44 -43 rlineto
          -9 -22 -4 -25 -29 vvcurveto
          -78 vlineto
          -28 4 -26 9 -21 vhcurveto
          -44 -44 44 -44 40 39 rlineto
          -16 24 34 -9 45 hhcurveto
          45 33 9 17 24 hvcurveto
          endchar
        </CharString>
        <CharString name="d">
          73 70 callsubr
          endchar
        </CharString>
        <CharString name="dagger">
          211 callgsubr
          0 -5 -69 -68 vvcurveto
          -492 60 492 vlineto
          68 -5 69 0 vhcurveto
          0 47 -5 55 vhcurveto
          54 vlineto
          -55 -47 -5 0 hvcurveto
          0 5 70 62 vvcurveto
          endchar
        </CharString>
        <CharString name="daggerdbl">
          211 callgsubr
          -2 -135 0 -182 2 -136 rrcurveto
          0 -42 5 -60 vhcurveto
          -54 vlineto
          60 42 5 0 hvcurveto
          0 -5 -52 -80 vvcurveto
          60 hlineto
          80 -5 52 0 vhcurveto
          317 callgsubr
          2 136 0 183 -2 134 rrcurveto
          317 callgsubr
          0 5 70 62 vvcurveto
          endchar
        </CharString>
        <CharString name="danda">
          -90 148 hmoveto
          62 649 -62 hlineto
          endchar
        </CharString>
        <CharString name="dcaron">
          78 70 callsubr
          135 211 190 callsubr
          33 53 22 94 callgsubr
        </CharString>
        <CharString name="dcroat">
          74 310 719 rmoveto
          -47 -125 -45 125 -59 -96 vlineto
          -91 -62 -52 -97 hvcurveto
          -279 vlineto
          -91 48 -52 93 58 31 19 17 20 vhcurveto
          -33 67 627 39 45 -39 47 vlineto
          -68 -626 rmoveto
          -17 -18 -34 -18 -46 hhcurveto
          -56 -27 28 58 hvcurveto
          274 vlineto
          59 34 29 63 vhcurveto
          84 hlineto
          endchar
        </CharString>
        <CharString name="degree">
          -5 186 507 rmoveto
          100 34 62 80 81 -34 63 -100 -100 -33 -63 -81 -80 33 -62 100 hvcurveto
          52 vmoveto
          -67 -11 39 50 51 11 40 67 67 13 -40 -51 -50 -13 -39 -67 hvcurveto
          endchar
        </CharString>
        <CharString name="dieresis">
          -23 108 628 -90 callsubr
          endchar
        </CharString>
        <CharString name="divide">
          62 40 351 289 callsubr
          -174 -241 rmoveto
          100 callsubr
          343 vmoveto
          100 callsubr
          endchar
        </CharString>
        <CharString name="dollar">
          13 160 735 rmoveto
          -61 vlineto
          -88 -12 -44 -51 -75 vvcurveto
          -59 vlineto
          -68 31 -41 56 -31 vhcurveto
          115 -63 rlineto
          42 -22 13 -22 -44 vvcurveto
          -43 vlineto
          -50 -32 -36 -87 -50 -51 11 12 -32 vhcurveto
          -65 vlineto
          24 -9 45 -9 49 -2 rrcurveto
          -70 62 73 vlineto
          96 12 45 52 77 vvcurveto
          54 vlineto
          63 -27 40 -55 29 vhcurveto
          -116 65 rlineto
          -42 23 -17 25 46 vvcurveto
          50 vlineto
          52 33 27 71 50 47 -7 -11 30 vhcurveto
          65 vlineto
          -23 7 -38 7 -45 2 rrcurveto
          59 vlineto
          endchar
        </CharString>
        <CharString name="dotaccent">
          -23 173 651 20 callgsubr
        </CharString>
        <CharString name="dotlessi">
          72 callgsubr
          endchar
        </CharString>
        <CharString name="dottedcircle">
          287 183 472 rmoveto
          26 18 19 26 25 -18 19 -26 -26 -18 -19 -25 -26 18 -19 26 hvcurveto
          -80 -109 rmoveto
          24 20 19 25 25 -20 19 -24 -26 -20 -19 -25 -25 20 -19 26 hvcurveto
          -15 -125 rmoveto
          26 18 18 327 callsubr
          -18 25 hvcurveto
          52 -117 rmoveto
          25 19 18 26 25 -19 19 -25 -26 -18 -19 -25 -26 18 -18 26 hvcurveto
          102 -77 rmoveto
          25 19 20 26 24 -19 20 -25 -26 -19 -20 -24 -26 19 -20 26 hvcurveto
          126 -14 rmoveto
          26 19 18 26 26 -19 18 -26 282 callsubr
          121 53 rmoveto
          25 20 18 26 25 -20 19 -25 -25 -19 -19 -25 -26 19 -18 25 hvcurveto
          74 98 rmoveto
          24 19 19 25 26 -19 19 -24 -26 -19 -19 -26 -25 19 -19 26 hvcurveto
          9 134 rmoveto
          25 19 18 26 26 -19 18 -25 282 callsubr
          -50 118 rmoveto
          26 18 19 327 callsubr
          -19 25 hvcurveto
          -94 68 rmoveto
          25 18 20 24 26 -18 19 -25 -26 -19 -19 -26 -24 19 -20 26 hvcurveto
          -127 15 rmoveto
          26 18 18 26 26 -18 18 -26 282 callsubr
          endchar
        </CharString>
        <CharString name="doubledanda">
          73 114 hmoveto
          62 649 -62 hlineto
          197 -649 rmoveto
          62 649 -62 hlineto
          endchar
        </CharString>
        <CharString name="dvA">
          187 245 135 callsubr
          97 54 -159 -382 -120 vlineto
          -70 callgsubr
          endchar
        </CharString>
        <CharString name="dvAA">
          419 270 135 callsubr
          146 -85 callsubr
          -367 -382 -120 vlineto
          -70 callgsubr
          endchar
        </CharString>
        <CharString name="dvAI">
          53 298 649 rmoveto
          -322 -54 93 -470 hlineto
          -84 52 -46 104 53 46 10 10 24 vhcurveto
          57 vlineto
          -8 -26 -46 -12 -50 hhcurveto
          -69 -26 29 45 hvcurveto
          469 62 callsubr
          -88 vlineto
          -158 229 rlineto
          -70 hlineto
          endchar
        </CharString>
        <CharString name="dvAU">
          420 381 822 101 callgsubr
          -112 -382 -120 hlineto
          -70 callgsubr
          -73 vlineto
          -36 callsubr
          146 -85 callsubr
          -100 vlineto
          3 callgsubr
          endchar
        </CharString>
        <CharString name="dvAbbreviationsign">
          -5 186 191 rmoveto
          100 34 62 80 81 -34 62 -100 -100 -33 -62 -81 -80 33 -62 100 hvcurveto
          231 vmoveto
          67 13 -39 -51 -51 -13 -37 -67 -67 -11 37 51 51 11 39 67 hvcurveto
          endchar
        </CharString>
        <CharString name="dvAcandra">
          187 245 135 callsubr
          97 54 -159 -382 -120 vlineto
          -70 callgsubr
          310 592 17 callsubr
          endchar
        </CharString>
        <CharString name="dvAnusvara">
          -373 -105 727 -25 callsubr
        </CharString>
        <CharString name="dvAnusvara.amI">
          -373 59 712 -25 callsubr
        </CharString>
        <CharString name="dvAvagraha">
          47 383 201 rmoveto
          61 -17 43 -65 35 vhcurveto
          -134 75 rlineto
          -42 23 -9 27 38 vvcurveto
          24 vlineto
          37 8 27 76 vhcurveto
          159 58 -161 hlineto
          -109 -35 -45 -76 hvcurveto
          -27 vlineto
          -59 21 -44 60 -33 vhcurveto
          135 -75 rlineto
          42 -23 9 -28 -38 vvcurveto
          -68 vlineto
          -44 -15 -36 -85 vhcurveto
          -3 hlineto
          -84 -16 36 44 hvcurveto
          69 -61 -68 vlineto
          -86 44 -53 116 vhcurveto
          5 hlineto
          117 44 53 86 hvcurveto
          endchar
        </CharString>
        <CharString name="dvB">
          -153 -24 649 rmoveto
          -54 375 54 vlineto
          -305 -451 rmoveto
          -82 48 -46 103 106 44 45 83 vhcurveto
          179 vlineto
          83 -44 45 -106 -105 -46 -46 -82 vhcurveto
          243 -163 rmoveto
          -170 205 rlineto
          19 12 24 12 43 hhcurveto
          68 23 -32 -43 hvcurveto
          -182 -9 rmoveto
          172 -208 rlineto
          -21 -12 -23 -12 -46 hhcurveto
          -71 -20 29 45 hvcurveto
          endchar
        </CharString>
        <CharString name="dvBA">
          45 287 148 callsubr
          -466 -54 311 vlineto
          -84 -145 13 callgsubr
        </CharString>
        <CharString name="dvBH">
          30 257 182 46 callgsubr
          231 53 rmoveto
          -169 -1 callgsubr
          170 vlineto
          endchar
        </CharString>
        <CharString name="dvBHA">
          212 257 182 44 callsubr
          53 vmoveto
          -74 hlineto
          -96 -39 -39 -78 hvcurveto
          -96 -62 callgsubr
        </CharString>
        <CharString name="dvBH_LA">
          636 257 182 46 callgsubr
          679 -341 rmoveto
          -97 callgsubr
          -656 -54 497 -130 vlineto
          9 -22 166 callsubr
          -38 350 callsubr
          -75 -43 -31 -54 -15 hvcurveto
          -129 -1 callgsubr
          125 -189 275 callsubr
          -14 -22 -2 -21 hhcurveto
          189 callgsubr
          64 61 16 -31 -39 vhcurveto
          -145 61 145 vlineto
          39 21 31 61 27 25 118 callgsubr
          vlineto
          endchar
        </CharString>
        <CharString name="dvBH_NA">
          590 257 182 46 callgsubr
          632 -341 rmoveto
          -97 callgsubr
          -607 -54 448 343 callsubr
          vlineto
          -73 -43 -28 -57 -12 hvcurveto
          -122 135 hlineto
          215 callsubr
          -26 4 -27 321 callsubr
          27 25 66 callsubr
          -134 352 callgsubr
          -39 -78 hvcurveto
          -96 vlineto
          -79 40 -41 95 96 40 41 79 vhcurveto
          160 120 -159 vlineto
          -80 44 -41 87 88 43 41 80 vhcurveto
          169 vlineto
          45 -11 26 -1 1 vhcurveto
          139 -423 hlineto
          -199 423 rmoveto
          1 283 callsubr
          -16 -23 -55 -55 -15 24 40 vhcurveto
          176 vlineto
          41 15 24 55 vhcurveto
          endchar
        </CharString>
        <CharString name="dvBH_R">
          40 493 423 rmoveto
          -168 106 hlineto
          215 callsubr
          -23 5 -27 145 callsubr
          -5 23 26 214 callgsubr
          -95 299 callgsubr
          -55 vlineto
          -78 40 -41 95 96 40 41 78 vhcurveto
          119 169 vlineto
          -94 vmoveto
          -301 -321 rlineto
          81 hlineto
          102 108 42 45 54 70 22 32 rlinecurve
          -230 42 85 callgsubr
          endchar
        </CharString>
        <CharString name="dvBH_RA">
          220 458 238 -22 callsubr
          -95 299 callgsubr
          -55 vlineto
          -78 40 -41 95 96 40 41 78 vhcurveto
          119 134 vlineto
          -195 -118 85 callgsubr
          endchar
        </CharString>
        <CharString name="dvBH_R_YA">
          517 257 251 5 callgsubr
          -63 -64 -11 25 40 vhcurveto
          41 157 callgsubr
          62 53 rmoveto
          119 vlineto
          310 callgsubr
          -41 -45 -80 -4 1 -37 145 callsubr
          -1 37 3 82 callgsubr
          -118 -74 vlineto
          -96 -39 -39 -78 hvcurveto
          -43 35 callsubr
          106 89 vlineto
          17 15 -2 -8 8 hvcurveto
          -90 vlineto
          -12 1 -11 1 -11 vhcurveto
          -251 -268 rlineto
          80 hlineto
          102 108 28 29 32 40 25 33 rlinecurve
          -60 29 63 -19 74 hhcurveto
          68 36 16 24 19 hvcurveto
          -125 -98 callsubr
          -536 -54 127 vlineto
          57 16 -27 -43 hvcurveto
          -64 vlineto
          -55 -23 -16 -68 -2 vhcurveto
          15 -13 -24 7 -35 hhcurveto
          94 -150 rmoveto
          78 -13 callgsubr
          83 hvcurveto
          69 vlineto
          40 -12 22 -15 8 vhcurveto
          143 -347 hlineto
          -72 -4 -29 -33 -88 hhcurveto
          -95 -30 37 80 hvcurveto
          endchar
        </CharString>
        <CharString name="dvBH_VA">
          446 685 138 6 callsubr
          -43 hhcurveto
          -68 -25 116 callsubr
          -428 -255 46 callgsubr
          489 -341 rmoveto
          -97 callgsubr
          -462 -54 303 80 callgsubr
          -91 -49 -43 -68 -8 hvcurveto
          -124 -1 callgsubr
          124 -140 278 callsubr
        </CharString>
        <CharString name="dvBH_YA">
          517 257 221 callgsubr
          148 hmoveto
          15 callgsubr
          -96 -39 -39 -79 hvcurveto
          185 callsubr
          320 172 75 callgsubr
          endchar
        </CharString>
        <CharString name="dvB_BA">
          289 531 492 rmoveto
          188 callsubr
          -127 vlineto
          -182 140 -66 callsubr
          104 59 40 15 28 23 vhcurveto
          -28 26 42 -15 57 hhcurveto
          45 30 9 4 11 hvcurveto
          -83 264 callgsubr
          -710 -54 555 vlineto
          -332 -470 45 callgsubr
          248 hmoveto
          -42 callsubr
        </CharString>
        <CharString name="dvB_BHA">
          453 -24 595 rmoveto
          261 54 -261 hlineto
          522 -467 44 callsubr
          -300 -216 rmoveto
          -71 -20 29 45 137 callsubr
          300 269 rmoveto
          -74 hlineto
          -96 -39 -39 -78 hvcurveto
          -26 140 callgsubr
          52 37 12 21 24 vhcurveto
          -28 20 37 -14 57 hhcurveto
          96 39 41 79 hvcurveto
          160 132 -341 286 callsubr
          -255 -131 135 vlineto
          310 callgsubr
          -40 -45 -80 -24 3 -29 321 callsubr
          31 21 105 callsubr
        </CharString>
        <CharString name="dvB_BH_RA">
          455 -23 595 rmoveto
          265 54 -265 hlineto
          716 -411 -22 callsubr
          -95 299 callgsubr
          -53 vlineto
          -180 138 -66 callsubr
          103 81 44 28 51 15 vhcurveto
          -12 21 29 -6 36 hhcurveto
          96 40 41 78 hvcurveto
          119 134 vlineto
          -495 -244 rmoveto
          -71 -20 29 45 137 callsubr
          300 126 85 callgsubr
          endchar
        </CharString>
        <CharString name="dvB_DA">
          274 214 callsubr
          181 -140 rlineto
          -5 1 -4 -3 vvcurveto
          -39 -4 -25 -21 -61 hhcurveto
          389 112 rmoveto
          -59 -97 hlineto
          118 callsubr
          -67 -28 29 46 hvcurveto
          171 -7 callgsubr
          138 265 callsubr
          -694 -54 535 56 callsubr
          -126 vlineto
          -180 138 -66 callsubr
          104 61 39 16 29 23 vhcurveto
          -27 26 41 -14 54 hhcurveto
          37 24 3 6 26 hvcurveto
          -91 59 vlineto
          endchar
        </CharString>
        <CharString name="dvB_DHA">
          344 198 125 rmoveto
          -71 -20 29 45 137 callsubr
          106 470 rmoveto
          0 -9 65 callgsubr
          -14 140 callgsubr
          61 40 16 29 22 vhcurveto
          -36 32 52 -16 65 hhcurveto
          49 35 6 8 29 hvcurveto
          -26 callsubr
          -490 -54 hlineto
          endchar
        </CharString>
        <CharString name="dvB_DH_VA">
          576 210 callsubr
          617 367 rmoveto
          209 callsubr
          -46 hhcurveto
          -99 126 callgsubr
          -17 2 -16 5 -14 vhcurveto
          -8 -35 -38 -5 -33 -45 callgsubr
          -462 -54 327 135 callgsubr
          -28 -1 -1 142 callgsubr
          69 42 21 37 21 vhcurveto
          -30 32 50 -14 61 hhcurveto
          46 52 10 11 39 hvcurveto
          -23 25 37 -12 50 hhcurveto
          46 38 9 4 10 hvcurveto
          -83 -39 callgsubr
          -416 -54 258 vlineto
          1 -457 -93 callsubr
        </CharString>
        <CharString name="dvB_JA">
          483 585 370 rmoveto
          316 callgsubr
          95 54 -902 39 callsubr
          -478 169 124 callsubr
        </CharString>
        <CharString name="dvB_JHA">
          562 198 122 rmoveto
          -71 -20 28 46 137 callsubr
          338 135 rmoveto
          65 18 -27 -41 hvcurveto
          -44 vlineto
          -41 -23 -28 -68 -27 -27 2 7 -27 vhcurveto
          72 -59 -217 59 89 vlineto
          -7 26 25 -2 35 hhcurveto
          104 43 41 82 hvcurveto
          46 vlineto
          33 -10 24 -19 14 vhcurveto
          149 -260 67 callsubr
          -982 -54 635 -90 -87 hlineto
          -98 -47 -40 -80 hvcurveto
          -7 vlineto
          -26 5 -22 10 -18 vhcurveto
          -105 -65 hlineto
          -181 140 rlineto
          37 4 23 23 63 hhcurveto
          28 25 -5 0 hvcurveto
          55 vlineto
          0 -27 5 -28 -104 -46 -46 -82 vhcurveto
          -179 327 callgsubr
          65 177 0 1 vlineto
          -1 55 rmoveto
          -65 1 -16 25 40 vvcurveto
          6 vlineto
          41 17 24 66 vhcurveto
          148 146 128 -283 hlineto
          endchar
        </CharString>
        <CharString name="dvB_J_YA">
          767 63 649 rmoveto
          -54 202 54 vlineto
          624 -124 -103 callsubr
          91 240 callgsubr
          116 -469 rmoveto
          -98 callsubr
          -873 -54 529 hlineto
          -68 callsubr
          -51 285 callsubr
          71 -4 -44 21 -73 hhcurveto
          -217 -55 100 hlineto
          0 9 -26 -45 vvcurveto
          -170 289 callgsubr
          -74 17 7 -27 vhcurveto
          -11 -56 rlineto
          -8 27 74 -17 48 hhcurveto
          100 53 49 85 hvcurveto
          173 vlineto
          47 -8 23 0 vhcurveto
          38 hlineto
          57 26 -6 -47 hvcurveto
          -131 vlineto
          242 callgsubr
          6 6 23 vhcurveto
          -716 127 rmoveto
          8 -138 173 -20 16 vhcurveto
          3 19 22 1 25 hhcurveto
          23 20 -1 -2 18 hvcurveto
          19 -17 12 -22 -18 vvcurveto
          -20 -210 rmoveto
          0 vlineto
          54 9 24 21 30 vvcurveto
          145 vlineto
          32 -27 22 -62 8 vhcurveto
          14 -18 -24 11 -28 hhcurveto
          -36 2 -18 -10 -5 -17 rrcurveto
          0 1 0 1 -1 vhcurveto
          -58 -8 -27 -21 -32 vvcurveto
          -145 vlineto
          -32 28 -21 62 -8 vhcurveto
          -16 17 25 -10 30 hhcurveto
          39 -2 17 10 5 19 rrcurveto
          -162 54 rmoveto
          147 vlineto
          -8 153 -193 9 vhcurveto
          -3 -20 -24 -2 -28 hhcurveto
          -23 -21 1 3 -17 hvcurveto
          -19 15 -10 21 19 vvcurveto
          endchar
        </CharString>
        <CharString name="dvB_JxA">
          483 585 197 rmoveto
          173 vlineto
          316 callgsubr
          97 54 -904 39 callsubr
          -280 -185 rmoveto
          -31 126 callsubr
          31 10 18 263 callsubr
          hvcurveto
          -198 354 124 callsubr
        </CharString>
        <CharString name="dvB_LA">
          483 199 125 45 callgsubr
          584 470 rmoveto
          97 54 -904 -54 746 -130 hlineto
          -28 callgsubr
          -94 -44 -49 -80 hvcurveto
          -100 vlineto
          -182 140 -66 callsubr
          104 43 33 8 15 24 vhcurveto
          -59 17 49 -34 90 hhcurveto
          339 callgsubr
          hvcurveto
          20 callsubr
          61 vlineto
          endchar
        </CharString>
        <CharString name="dvB_L_YA">
          775 210 callsubr
          699 400 -97 callsubr
          -51 -19 -17 -56 -4 vhcurveto
          58 -12 -41 36 -76 hhcurveto
          -49 -30 266 callsubr
          27 -18 -36 18 -53 hhcurveto
          -95 -42 -49 -80 hvcurveto
          -98 142 callgsubr
          43 32 8 15 24 vhcurveto
          -59 17 48 -34 89 hhcurveto
          5 53 0 1 3 hvcurveto
          55 -59 vlineto
          189 callgsubr
          63 64 13 -32 -41 vhcurveto
          -142 293 callsubr
          44 12 29 57 64 299 callsubr
          -93 vlineto
          -134 93 -72 callgsubr
          -1196 -54 vlineto
          endchar
        </CharString>
        <CharString name="dvB_NA">
          437 196 448 rmoveto
          68 21 -26 -48 hvcurveto
          -122 vlineto
          -177 136 rlineto
          37 4 22 23 62 hhcurveto
          -323 vmoveto
          -70 -19 29 45 hvcurveto
          136 vlineto
          178 -137 rlineto
          -47 -22 -26 -67 vhcurveto
          479 298 rmoveto
          -423 -98 callsubr
          -858 -54 699 343 callsubr
          vlineto
          -41 -32 -9 -17 -22 hvcurveto
          32 -21 -40 18 -65 hhcurveto
          -104 -46 -46 -82 hvcurveto
          -177 vlineto
          -82 46 -46 104 52 36 12 21 23 vhcurveto
          -28 22 36 -14 52 hhcurveto
          87 43 41 80 hvcurveto
          -74 callgsubr
        </CharString>
        <CharString name="dvB_R">
          -149 41 -67 rmoveto
          84 hlineto
          152 144 rlineto
          50 47 24 24 61 vvcurveto
          168 vlineto
          83 -44 45 -105 -106 -45 -46 -82 vhcurveto
          -168 vlineto
          -79 43 -47 107 -1 vhcurveto
          -225 513 rmoveto
          396 54 -396 hlineto
          226 -199 rmoveto
          68 23 -25 -49 hvcurveto
          -116 vlineto
          -181 131 rlineto
          37 5 22 22 63 hhcurveto
          -314 vmoveto
          -71 -20 29 45 hvcurveto
          128 vlineto
          182 -131 rlineto
          -45 -23 -26 -68 vhcurveto
          endchar
        </CharString>
        <CharString name="dvB_RA">
          49 291 283 callgsubr
          -100 -53 -45 -83 hvcurveto
          -155 196 callsubr
          -110 264 callgsubr
          -470 -54 315 vlineto
          -84 -447 95 callgsubr
        </CharString>
        <CharString name="dvB_SA">
          455 214 callsubr
          182 -141 rlineto
          -13 vlineto
          -38 -5 -25 -20 -60 hhcurveto
          387 -113 -86 callgsubr
          161 -291 62 -61 callsubr
          54 -876 -54 518 hlineto
          50 callsubr
          -24 -23 4 5 -20 vhcurveto
          131 -62 -199 vlineto
          -181 139 rlineto
          37 4 23 23 63 hhcurveto
          16 16 -3 0 hvcurveto
          55 vlineto
          0 -17 3 -17 22 callgsubr
          104 42 32 8 14 24 vhcurveto
          -65 19 60 -32 84 hhcurveto
          58 44 10 7 25 hvcurveto
          107 333 rmoveto
          -133 hlineto
          -89 callsubr
          137 hlineto
          endchar
        </CharString>
        <CharString name="dvB_SHA">
          449 -24 595 rmoveto
          259 54 -259 hlineto
          711 hmoveto
          -649 -98 callsubr
          vlineto
          -647 -524 45 callgsubr
          385 400 rmoveto
          79 -46 50 -100 -100 -47 -50 -79 vhcurveto
          -17 3 -20 -2 vvcurveto
          62 hlineto
          -1 2 -2 17 18 -15 callgsubr
          -140 230 callsubr
          -67 -32 -31 7 7 -22 vhcurveto
          79 -62 -151 -1 -3 vlineto
          -182 140 -66 callsubr
          104 44 33 8 16 24 vhcurveto
          -62 20 61 -36 83 hhcurveto
          159 callgsubr
          hvcurveto
          58 vlineto
          -10 -36 -33 -8 -46 hhcurveto
          -72 257 callsubr
          125 vlineto
          -8 23 30 -6 34 hhcurveto
          99 244 callgsubr
          endchar
        </CharString>
        <CharString name="dvB_TA">
          298 199 125 45 callgsubr
          240 -68 rmoveto
          -68 -2 -19 27 42 vvcurveto
          247 vlineto
          43 23 32 69 36 35 -7 -5 20 70 callgsubr
          -718 -54 559 -105 vlineto
          328 callgsubr
          -122 vlineto
          -182 140 -66 callsubr
          104 41 31 7 13 23 vhcurveto
          -57 10 39 -34 77 hhcurveto
          20 hlineto
          endchar
        </CharString>
        <CharString name="dvB_VA">
          293 214 callsubr
          181 -140 rlineto
          -1 0 -4 -5 vvcurveto
          -40 -3 -25 -22 -61 hhcurveto
          332 367 rmoveto
          144 callgsubr
          -123 vlineto
          -180 138 -66 callsubr
          104 58 39 15 27 23 vhcurveto
          -27 24 40 -15 56 152 callsubr
          -713 -54 555 vlineto
          1 -457 -93 callsubr
        </CharString>
        <CharString name="dvB_YA">
          358 199 125 45 callgsubr
          281 400 -97 callsubr
          -60 -27 -13 -83 vhcurveto
          -20 -128 hlineto
          -5 146 callgsubr
          104 72 43 22 41 20 vhcurveto
          -36 37 55 -12 59 hhcurveto
          47 42 25 callsubr
          -779 -54 vlineto
          endchar
        </CharString>
        <CharString name="dvC">
          306 callgsubr
          11 -461 rmoveto
          -9 -30 -41 -7 -32 hhcurveto
          -66 -24 27 49 hvcurveto
          145 vlineto
          -8 callsubr
          -146 vlineto
          -83 45 -48 102 36 48 8 8 24 vhcurveto
          endchar
        </CharString>
        <CharString name="dvCA">
          88 152 339 rmoveto
          -8 callsubr
          -146 vlineto
          -83 45 -48 101 36 30 6 8 24 vhcurveto
          -76 67 callsubr
          -508 -54 350 270 callgsubr
        </CharString>
        <CharString name="dvCH">
          131 256 485 rmoveto
          -56 vlineto
          0 24 10 31 64 13 -27 -46 vhcurveto
          -196 134 callgsubr
          327 54 -552 -54 120 hlineto
          146 callsubr
          203 vlineto
          69 -32 54 -97 vhcurveto
          -34 1 -30 -10 0 vvcurveto
          endchar
        </CharString>
        <CharString name="dvCHA">
          132 66 392 276 callgsubr
          -104 55 -40 140 140 53 40 106 vhcurveto
          69 callgsubr
          -552 -54 100 -18 callgsubr
        </CharString>
        <CharString name="dvCH_R">
          -22 callgsubr
          264 -695 -34 callgsubr
          endchar
        </CharString>
        <CharString name="dvCH_RA">
          -22 callgsubr
          endchar
        </CharString>
        <CharString name="dvCH_R_YA">
          626 336 -126 rmoveto
          65 hlineto
          -82 152 rlineto
          92 11 37 43 88 vvcurveto
          203 vlineto
          26 -4 23 -8 18 vhcurveto
          181 323 callgsubr
          -8 288 callsubr
          -30 -52 hlineto
          -133 84 -37 104 44 44 6 5 31 vhcurveto
          -86 -98 callsubr
          -1048 -54 100 209 callgsubr
          -133 vlineto
          96 callsubr
          -88 39 -42 97 -11 vhcurveto
          -83 -151 rlineto
          66 hlineto
          76 148 rlineto
          4 hlineto
          489 110 rmoveto
          -96 -33 206 callgsubr
          12 vlineto
          80 -41 41 -92 vhcurveto
          -241 100 490 280 callgsubr
          -621 393 rmoveto
          -60 callgsubr
        </CharString>
        <CharString name="dvCH_YA">
          609 908 hmoveto
          -97 callgsubr
          -1029 -54 120 vlineto
          146 callsubr
          228 vlineto
          14 -1 14 -4 13 vhcurveto
          154 323 callgsubr
          -7 92 callgsubr
          32 vhcurveto
          -86 vlineto
          -591 510 rmoveto
          -56 vlineto
          0 24 10 31 64 13 -27 -46 vhcurveto
          -221 134 callgsubr
          646 -451 hlineto
          -6 -33 -41 -6 -44 hhcurveto
          -95 -34 206 callgsubr
          10 vlineto
          80 -41 42 -92 vhcurveto
          -188 hlineto
          16 -20 -29 9 -40 hhcurveto
          -34 1 -30 -10 0 vvcurveto
          endchar
        </CharString>
        <CharString name="dvC_CA">
          334 398 339 rmoveto
          58 10 30 0 vhcurveto
          109 54 -221 -54 49 hlineto
          0 -9 -31 -57 vvcurveto
          -146 vlineto
          -23 4 -21 7 -18 vhcurveto
          -7 -28 -33 -6 -39 hhcurveto
          -67 -28 22 54 hvcurveto
          145 vlineto
          58 10 30 0 vhcurveto
          76 54 -226 -55 87 hlineto
          0 -9 -30 -57 vvcurveto
          -146 vlineto
          -83 53 -48 101 53 57 13 12 29 vhcurveto
          -16 23 33 -9 43 hhcurveto
          36 30 6 8 24 hvcurveto
          -76 67 callsubr
          -754 -54 596 270 callgsubr
        </CharString>
        <CharString name="dvC_CHA">
          411 345 392 rmoveto
          -45 10 -35 44 -17 vhcurveto
          -44 -13 -16 73 callgsubr
          -42 27 56 -17 92 hhcurveto
          140 53 40 106 hvcurveto
          69 callgsubr
          -831 -54 379 -18 callgsubr
        </CharString>
        <CharString name="dvC_CH_VA">
          411 344 392 rmoveto
          -45 11 -35 44 -17 vhcurveto
          -45 -13 -15 73 callgsubr
          12 -18 17 -13 22 -10 rrcurveto
          -26 -18 -16 -30 -41 vvcurveto
          -37 vlineto
          -81 53 -42 98 37 32 4 7 26 vhcurveto
          -61 61 309 vlineto
          36 23 16 38 57 vvcurveto
          203 vlineto
          61 -20 41 -54 13 vhcurveto
          109 154 54 -831 -54 379 vlineto
          0 -11 -23 -47 vvcurveto
          177 -680 rmoveto
          -70 -23 27 44 hvcurveto
          35 vlineto
          43 21 28 70 vhcurveto
          0 vlineto
          5 5 0 5 hhcurveto
          31 26 2 4 23 hvcurveto
          -172 vlineto
          -8 -29 -27 -3 -37 hhcurveto
          -115 680 rmoveto
          45 10 25 0 vhcurveto
          181 -101 hlineto
          -36 -27 -8 0 hvcurveto
          -55 vlineto
          0 25 8 31 64 12 -47 callsubr
          -68 1 -14 27 41 vvcurveto
          endchar
        </CharString>
        <CharString name="dvC_MA">
          490 598 348 callgsubr
          -190 -248 -98 callgsubr
          190 -376 rmoveto
          -98 callsubr
          -910 -54 561 224 callsubr
          -19 2 -17 5 -14 vhcurveto
          -7 -26 -33 -6 -31 hhcurveto
          -67 -25 27 49 hvcurveto
          145 vlineto
          -8 callsubr
          -146 vlineto
          -83 49 -48 102 47 55 13 9 26 vhcurveto
          -14 21 31 -8 41 163 callsubr
        </CharString>
        <CharString name="dvC_NA">
          480 718 423 rmoveto
          -423 -98 callsubr
          -909 -54 750 301 callsubr
          -19 2 -16 5 -14 vhcurveto
          -8 -29 -36 -7 -35 hhcurveto
          -66 -25 27 49 hvcurveto
          145 vlineto
          -8 callsubr
          -146 vlineto
          -83 49 -48 102 51 51 13 11 32 vhcurveto
          -16 22 31 -9 40 hhcurveto
          87 43 41 80 hvcurveto
          -74 callgsubr
        </CharString>
        <CharString name="dvC_R">
          306 callgsubr
          25 -458 rmoveto
          -8 -29 -33 -5 -45 hhcurveto
          -76 -24 26 49 hvcurveto
          140 vlineto
          -8 callsubr
          -141 vlineto
          -83 45 -48 111 10 8 0 1 9 vhcurveto
          -146 -128 rlineto
          79 hlineto
          153 139 rlineto
          endchar
        </CharString>
        <CharString name="dvC_RA">
          89 152 332 callsubr
          -258 -55 86 hlineto
          0 -9 -30 -57 vvcurveto
          -107 vlineto
          -81 42 -48 98 -2 vhcurveto
          -151 -151 rlineto
          79 hlineto
          164 164 rlineto
          1 1 1 1 hhcurveto
          -115 -98 callsubr
          -509 -54 350 -426 297 callsubr
        </CharString>
        <CharString name="dvC_YA">
          401 523 525 -97 callsubr
          -60 -27 -13 -83 vhcurveto
          -20 -128 hlineto
          -43 10 -33 16 -26 vhcurveto
          -10 -32 -40 -9 -42 hhcurveto
          -66 -26 26 49 hvcurveto
          129 vlineto
          -8 callsubr
          -130 vlineto
          -82 50 -48 104 72 58 21 14 27 vhcurveto
          -21 35 44 -8 47 hhcurveto
          47 42 25 callsubr
          -822 -54 vlineto
          endchar
        </CharString>
        <CharString name="dvCandrabindu">
          -373 -104 830 rmoveto
          29 10 17 23 22 -10 17 -29 -30 -10 -17 -22 113 callsubr
          98 4 17 callsubr
          endchar
        </CharString>
        <CharString name="dvD">
          30 44 205 rmoveto
          -78 callsubr
          -450 -54 291 -93 -76 hlineto
          -100 -47 -41 -83 hvcurveto
          408 -585 -34 callgsubr
          endchar
        </CharString>
        <CharString name="dvDA">
          30 44 205 rmoveto
          -78 callsubr
          -450 -54 291 -93 -76 hlineto
          -100 -47 -41 -83 hvcurveto
          endchar
        </CharString>
        <CharString name="dvDA_mvR">
          30 44 268 rmoveto
          -83 55 -48 99 36 24 3 7 27 vhcurveto
          -55 vlineto
          -7 -5 0 -4 hhcurveto
          -84 -52 -35 -98 -97 59 -35 84 27 17 1 4 29 hvcurveto
          60 vlineto
          -3 -25 -23 -3 -24 hhcurveto
          -44 -41 6 67 68 37 5 44 17 30 -2 -3 24 hvcurveto
          267 -59 -91 vlineto
          -6 -26 -21 -4 -37 hhcurveto
          -68 -27 30 46 hvcurveto
          108 184 callsubr
        </CharString>
        <CharString name="dvDD">
          38 362 -53 callsubr
          -10 43 42 -4 50 hhcurveto
          113 56 45 84 hvcurveto
          -23 -330 -34 callgsubr
          endchar
        </CharString>
        <CharString name="dvDDA">
          38 362 -53 callsubr
          -10 43 42 -4 50 hhcurveto
          113 56 45 84 hvcurveto
          endchar
        </CharString>
        <CharString name="dvDDH">
          296 callsubr
          -84 48 -51 105 105 47 50 84 vhcurveto
          -50 callgsubr
          125 149 103 54 -454 -54 290 -92 hlineto
          78 -710 -34 callgsubr
          endchar
        </CharString>
        <CharString name="dvDDHA">
          296 callsubr
          -84 48 -51 105 105 47 50 84 vhcurveto
          -50 callgsubr
          125 149 103 54 -454 -54 290 -92 hlineto
          endchar
        </CharString>
        <CharString name="dvDDH_DDHA">
          40 304 callgsubr
          -46 15 -36 31 -23 vhcurveto
          -32 -20 -15 -34 -45 vvcurveto
          -152 vlineto
          -83 49 -50 106 105 48 49 83 vhcurveto
          14 vlineto
          81 -49 38 -67 -30 -20 -8 0 vhcurveto
          -53 vlineto
          0 14 8 28 38 26 -18 -49 vhcurveto
          -12 335 callgsubr
          34 45 vhcurveto
          150 vlineto
          45 18 27 69 vhcurveto
          6 hlineto
          106 48 49 83 hvcurveto
          99 callsubr
          108 54 -460 -54 291 -92 hlineto
          endchar
        </CharString>
        <CharString name="dvDDH_R">
          33 348 -308 -34 callgsubr
          -78 811 282 callgsubr
          -65 29 -46 62 -17 vhcurveto
          -81 -148 rlineto
          66 hlineto
          73 141 rlineto
          4 hlineto
          6 hlineto
          287 callsubr
          -81 149 rlineto
          60 17 28 45 64 vvcurveto
          -50 callgsubr
          125 149 103 54 -454 -54 290 -92 hlineto
          endchar
        </CharString>
        <CharString name="dvDDH_RA">
          296 callsubr
          -65 29 -45 62 -18 vhcurveto
          -81 -147 rlineto
          66 hlineto
          72 140 rlineto
          5 hlineto
          7 hlineto
          73 -140 285 callgsubr
          60 17 27 45 64 vvcurveto
          -50 callgsubr
          125 149 103 54 -454 -54 290 -92 hlineto
          endchar
        </CharString>
        <CharString name="dvDDH_VA">
          48 304 callgsubr
          -53 20 -38 42 -21 vhcurveto
          -41 -15 -20 -34 -44 346 callgsubr
          71 1 rrcurveto
          32 29 -4 3 13 hvcurveto
          24 -52 35 71 -20 236 rlineto
          31 22 14 35 45 vvcurveto
          99 callsubr
          117 54 -469 -54 291 -92 hlineto
          -74 -586 rmoveto
          -54 -20 25 37 8 1 36 8 hvcurveto
          26 6 27 25 14 vhcurveto
          -3 16 17 -2 19 hhcurveto
          27 23 3 6 20 hvcurveto
          -52 -2 -3 -124 -2 351 callgsubr
        </CharString>
        <CharString name="dvDDH_YA">
          511 208 -5 rmoveto
          105 47 50 84 hvcurveto
          -50 callgsubr
          298 hlineto
          60 11 -26 -41 hvcurveto
          -16 194 callsubr
          -931 -54 290 -92 -64 vlineto
          -100 -47 -43 -81 hvcurveto
          -249 vlineto
          -84 48 -51 105 vhcurveto
          424 137 305 callgsubr
          20 vlineto
          79 -41 42 -92 vhcurveto
          -173 92 422 -451 hlineto
          -6 -33 -41 -6 -43 hhcurveto
          endchar
        </CharString>
        <CharString name="dvDDHxA">
          296 callsubr
          -84 48 -51 105 105 47 50 84 vhcurveto
          48 vlineto
          84 -48 38 -69 -29 -20 -8 0 vhcurveto
          -56 vlineto
          0 15 8 28 37 25 -18 -49 vhcurveto
          -46 vlineto
          -44 -18 -34 -73 -73 -18 34 45 vhcurveto
          247 -7 callgsubr
          125 149 103 54 -454 -54 290 -92 hlineto
          -59 -674 -56 callgsubr
          endchar
        </CharString>
        <CharString name="dvDD_DDA">
          47 39 102 rmoveto
          13 -3 14 -2 15 -2 rrcurveto
          -16 -19 -8 -23 -30 vvcurveto
          -81 53 -28 84 vhcurveto
          37 hlineto
          59 18 -18 -40 hvcurveto
          -16 vlineto
          -50 -22 -17 -79 -43 -62 8 10 -49 vhcurveto
          -54 vlineto
          -11 45 55 -8 54 hhcurveto
          113 51 33 88 hvcurveto
          16 vlineto
          80 -47 32 -93 vhcurveto
          -39 hlineto
          -57 -18 17 41 43 18 17 57 hvcurveto
          0 vlineto
          4 5 0 4 258 callsubr
          -17 16 41 -1 hvcurveto
          4 vlineto
          40 18 16 58 vhcurveto
          267 callgsubr
          -33 -76 hvcurveto
          -5 vlineto
          -81 49 -29 90 vhcurveto
          38 hlineto
          59 18 -17 -41 279 callgsubr
        </CharString>
        <CharString name="dvDD_DDHA">
          46 39 102 rmoveto
          15 -3 16 -3 17 -2 rrcurveto
          -21 -21 -12 -29 -36 vvcurveto
          -146 vlineto
          -84 49 -49 106 105 48 49 83 vhcurveto
          14 vlineto
          80 -49 38 -67 -30 -20 -8 0 vhcurveto
          -52 vlineto
          0 14 8 28 38 26 -19 -48 vhcurveto
          -12 335 callgsubr
          34 44 vhcurveto
          151 vlineto
          44 17 27 67 1 vhcurveto
          0 vlineto
          2 1 0 2 258 callsubr
          -18 16 41 44 18 16 58 hvcurveto
          267 callgsubr
          -32 -79 hvcurveto
          -4 vlineto
          -80 49 -29 90 vhcurveto
          38 hlineto
          59 18 -18 -40 279 callgsubr
        </CharString>
        <CharString name="dvDD_R">
          37 361 -53 callsubr
          27 -6 27 -4 28 -2 -78 -143 rcurveline
          66 hlineto
          73 141 rlineto
          3 4 0 3 hhcurveto
          287 callsubr
          -81 150 rlineto
          62 17 31 41 62 vvcurveto
          -22 -431 -34 callgsubr
          endchar
        </CharString>
        <CharString name="dvDD_RA">
          38 362 -53 callsubr
          27 -6 27 -4 28 -2 262 callgsubr
          4 4 0 1 4 hvcurveto
          73 -140 285 callgsubr
          61 17 30 41 62 vvcurveto
          endchar
        </CharString>
        <CharString name="dvDD_VA">
          48 39 102 rmoveto
          18 -4 22 -3 22 -3 rrcurveto
          -27 -18 -13 -28 -36 346 callgsubr
          72 1 rrcurveto
          32 28 -4 3 14 hvcurveto
          23 -52 35 71 -21 231 rlineto
          33 18 16 32 48 vvcurveto
          16 vlineto
          81 -47 32 -93 vhcurveto
          -38 hlineto
          -58 -18 16 41 hvcurveto
          3 vlineto
          41 18 16 58 vhcurveto
          149 144 102 54 -468 -54 303 -91 -85 hlineto
          -93 -47 -33 -76 hvcurveto
          -5 vlineto
          -81 50 -29 89 vhcurveto
          38 hlineto
          60 17 -18 -40 1 hvcurveto
          -16 vlineto
          -51 -24 -16 -78 -43 -72 7 11 -53 vhcurveto
          157 -240 rmoveto
          -54 -20 25 37 8 1 36 9 hvcurveto
          24 5 25 21 15 vhcurveto
          -1 17 16 -1 16 hhcurveto
          30 26 2 5 21 hvcurveto
          -34 -2 -2 -140 -3 351 callgsubr
        </CharString>
        <CharString name="dvDD_YA">
          514 193 -6 rmoveto
          113 56 45 84 hvcurveto
          37 vlineto
          80 -47 42 -100 vhcurveto
          -18 hlineto
          -66 235 callsubr
          35 vlineto
          41 18 25 66 vhcurveto
          306 323 callgsubr
          -19 92 callgsubr
          31 vhcurveto
          -86 -98 callsubr
          -934 230 callgsubr
          vlineto
          150 callgsubr
          -10 43 42 -4 50 hhcurveto
          441 138 rmoveto
          -95 -34 206 callgsubr
          22 vlineto
          80 -41 41 -92 vhcurveto
          -169 90 418 280 callgsubr
          endchar
        </CharString>
        <CharString name="dvDDxA">
          38 207 -171 rmoveto
          100 callsubr
          155 331 -50 callsubr
          -458 -54 295 -90 -74 hlineto
          -99 -47 -40 -80 hvcurveto
          -14 callgsubr
        </CharString>
        <CharString name="dvDH">
          -78 376 139 rmoveto
          -8 -28 -54 -12 -46 hhcurveto
          -76 -46 23 69 hvcurveto
          53 -26 callgsubr
          -57 vlineto
          -100 75 -45 105 49 52 10 9 31 vhcurveto
          endchar
        </CharString>
        <CharString name="dvDHA">
          119 79 595 rmoveto
          0 -9 65 callgsubr
          -57 vlineto
          -101 74 -44 106 49 35 6 8 29 vhcurveto
          -26 callsubr
          -265 -54 hlineto
          endchar
        </CharString>
        <CharString name="dvDH_MA">
          509 557 183 callsubr
          130 117 callsubr
          -39 callgsubr
          -573 -54 224 224 callsubr
          -17 2 -16 4 -13 vhcurveto
          -7 -30 -38 -6 -37 207 callsubr
          50 -26 callgsubr
          -55 322 callgsubr
          53 51 13 9 34 vhcurveto
          -16 22 32 -9 43 hhcurveto
          96 40 41 78 hvcurveto
          195 130 vlineto
          endchar
        </CharString>
        <CharString name="dvDH_NA">
          498 736 423 rmoveto
          -423 -39 callgsubr
          -578 -54 420 -116 -259 vlineto
          -87 114 callgsubr
          -177 vlineto
          -18 2 -16 5 -14 vhcurveto
          -8 -31 -38 -7 -36 hhcurveto
          -76 -46 23 69 hvcurveto
          53 -26 callgsubr
          -57 322 callgsubr
          52 53 13 10 34 vhcurveto
          -17 21 31 -8 39 hhcurveto
          88 43 41 80 hvcurveto
          169 vlineto
          45 -11 26 -1 1 vhcurveto
          -60 hmoveto
          1 -2 11 -27 -44 vvcurveto
          -168 347 callgsubr
          176 353 callgsubr
          54 vhcurveto
          endchar
        </CharString>
        <CharString name="dvDH_N_YA">
          802 537 415 rmoveto
          1 -2 11 -28 -43 vvcurveto
          -160 347 callgsubr
          168 353 callgsubr
          54 vhcurveto
          446 110 -97 callsubr
          -50 -19 -18 -55 -4 vhcurveto
          61 -10 -52 24 -79 hhcurveto
          -170 hlineto
          -87 -44 -39 -80 hvcurveto
          -169 vlineto
          -19 2 -16 5 -15 vhcurveto
          -7 -32 -38 -6 -36 hhcurveto
          -76 -46 23 69 hvcurveto
          53 -26 callgsubr
          -57 322 callgsubr
          53 55 12 9 34 vhcurveto
          -15 21 30 -8 38 hhcurveto
          88 43 41 80 hvcurveto
          161 vlineto
          45 -11 25 -1 2 vhcurveto
          46 hlineto
          52 38 -11 -39 hvcurveto
          -109 vlineto
          -134 92 -72 callgsubr
          -855 -54 vlineto
          endchar
        </CharString>
        <CharString name="dvDH_R">
          -78 64 230 rmoveto
          -103 72 -44 112 13 12 1 1 13 vhcurveto
          -149 -130 rlineto
          79 hlineto
          154 138 rlineto
          56 vlineto
          -5 -41 -26 -5 -49 hhcurveto
          -82 -46 23 71 hvcurveto
          34 -51 callgsubr
          64 158 callsubr
          75 54 -240 155 callgsubr
          -64 79 callgsubr
          endchar
        </CharString>
        <CharString name="dvDH_RA">
          120 357 154 rmoveto
          52 callgsubr
          101 54 -266 -54 102 hlineto
          291 callsubr
          -70 vlineto
          -45 178 callsubr
          26 callgsubr
          54 -159 vlineto
          endchar
        </CharString>
        <CharString name="dvDH_VA">
          352 590 165 callgsubr
          -46 hhcurveto
          -99 126 callgsubr
          -17 2 -16 5 -14 vhcurveto
          -8 -35 -38 -5 -33 -45 callgsubr
          -237 -54 102 135 callgsubr
          -52 322 callgsubr
          46 52 10 11 39 vhcurveto
          -23 25 37 -12 50 hhcurveto
          46 38 9 4 10 hvcurveto
          -83 -39 callgsubr
          -416 -54 258 vlineto
          1 -457 -93 callsubr
        </CharString>
        <CharString name="dvDH_YA">
          417 539 525 -46 callsubr
          -237 -54 102 hlineto
          0 -8 -23 -47 vvcurveto
          -51 vlineto
          -45 10 -35 44 -17 vhcurveto
          22 callsubr
        </CharString>
        <CharString name="dvD_BA">
          46 202 141 rmoveto
          29 50 5 5 17 hvcurveto
          -127 vlineto
          -6 0 -6 -1 -5 vhcurveto
          -156 120 rlineto
          9 14 20 5 27 hhcurveto
          -150 120 rmoveto
          -45 17 -33 32 -20 vhcurveto
          -30 -20 -17 -32 -46 vvcurveto
          -43 vlineto
          -83 47 -49 106 106 44 50 83 vhcurveto
          307 -59 -127 vlineto
          -4 -22 -41 -6 -29 hhcurveto
          -70 -22 28 43 hvcurveto
          111 vlineto
          42 18 28 70 vhcurveto
          140 150 100 54 -466 302 callsubr
          -433 rmoveto
          -75 -18 33 46 hvcurveto
          42 vlineto
          9 1 9 2 7 vhcurveto
          162 -125 rlineto
          -13 -13 -23 -8 -36 hhcurveto
          endchar
        </CharString>
        <CharString name="dvD_BHA">
          125 217 -38 rmoveto
          13 -17 3 -22 -32 -24 -34 -25 -20 12 -12 17 -14 19 rcurveline
          -12 18 -4 21 32 24 42 30 rcurveline
          -41 265 rmoveto
          -83 54 -48 95 -1 vhcurveto
          -93 -68 -49 68 -31 44 -47 5 -51 -38 rlinecurve
          -52 -37 -10 -46 31 -44 17 -21 rcurveline
          40 29 -16 22 -11 17 -2 20 31 23 rlinecurve
          30 22 17 -8 14 -17 48 -67 rcurveline
          -42 -31 -53 -39 -9 -47 31 -41 rlinecurve
          15 -21 31 -43 47 -8 55 38 rlinecurve
          54 40 6 48 -30 43 -39 54 rcurveline
          157 112 3 1 rlineto
          -109 59 262 281 callgsubr
          -68 -27 29 46 hvcurveto
          97 205 callgsubr
          100 54 -546 -54 385 351 callsubr
        </CharString>
        <CharString name="dvD_B_RA">
          44 202 196 rmoveto
          34 45 7 7 18 hvcurveto
          -108 vlineto
          -7 0 -7 -2 -6 vhcurveto
          -154 101 rlineto
          8 14 19 5 26 hhcurveto
          -150 120 rmoveto
          -46 17 -32 33 -20 vhcurveto
          -30 -20 -17 -33 -46 vvcurveto
          -18 vlineto
          -82 44 -45 96 -2 vhcurveto
          -109 -105 rlineto
          81 hlineto
          126 124 2 1 2 1 2 1 rlinecurve
          -75 58 419 -58 -76 vlineto
          -6 -19 -33 -8 -41 hhcurveto
          -70 -22 28 42 hvcurveto
          57 vlineto
          42 18 28 70 vhcurveto
          140 150 99 54 -465 302 callsubr
          -354 rmoveto
          -75 -18 33 45 hvcurveto
          18 vlineto
          10 1 10 2 8 vhcurveto
          161 -105 -3 -2 -4 -3 -4 -2 rlinecurve
          -5 hlineto
          -5 -4 rlineto
          -5 -13 -16 -3 -21 hhcurveto
          endchar
        </CharString>
        <CharString name="dvD_DA">
          37 51 372 rmoveto
          -45 16 -31 31 -19 vhcurveto
          -31 -20 -16 -31 -45 vvcurveto
          -53 vlineto
          -79 55 -44 98 38 26 6 7 24 vhcurveto
          -85 60 228 -60 -89 vlineto
          -5 -20 -28 -7 -36 hhcurveto
          -68 -27 27 41 hvcurveto
          53 vlineto
          41 18 27 68 vhcurveto
          90 55 -90 hlineto
          -68 -18 27 41 hvcurveto
          11 vlineto
          41 18 312 callsubr
          144 97 54 -457 -54 298 -90 -79 hlineto
          -98 -46 -42 -79 hvcurveto
          endchar
        </CharString>
        <CharString name="dvD_DHA">
          178 194 205 rmoveto
          345 callgsubr
          -79 -32 18 58 vhcurveto
          204 callgsubr
          15 50 -15 hlineto
          129 callgsubr
          83 callsubr
          endchar
        </CharString>
        <CharString name="dvD_GA">
          40 53 238 rmoveto
          -62 31 -43 57 -17 vhcurveto
          -73 vlineto
          -41 317 callsubr
          -4 22 91 27 43 78 vhcurveto
          67 vlineto
          2 2 0 2 hhcurveto
          36 25 3 7 27 hvcurveto
          -277 59 446 -59 -113 vlineto
          -6 -27 -20 -4 -37 hhcurveto
          -68 -27 30 46 hvcurveto
          138 205 callgsubr
          99 54 -460 -54 300 351 callsubr
        </CharString>
        <CharString name="dvD_GHA">
          179 175 -23 rmoveto
          -79 -32 18 58 hvcurveto
          204 callgsubr
          65 -91 hlineto
          345 callgsubr
          vhcurveto
          172 97 rmoveto
          83 callsubr
          -32 -65 vlineto
          129 callgsubr
          endchar
        </CharString>
        <CharString name="dvD_G_RA">
          39 352 -134 rmoveto
          465 -59 -118 vlineto
          -5 -27 -20 -4 -37 hhcurveto
          -68 -27 30 46 hvcurveto
          97 -7 callgsubr
          138 265 callsubr
          -458 -54 299 56 callsubr
          -99 vlineto
          -62 30 -42 56 -18 vhcurveto
          -54 vlineto
          -40 317 callsubr
          -5 22 91 27 44 78 vhcurveto
          47 vlineto
          3 2 0 3 hhcurveto
          36 25 3 7 27 hvcurveto
          -117 vlineto
          -205 -215 rlineto
          74 hlineto
          34 35 68 70 29 36 3 7 rlinecurve
          -1 vlineto
          -3 -1 -31 -27 vvcurveto
          -46 vlineto
          endchar
        </CharString>
        <CharString name="dvD_MA">
          254 347 127 rmoveto
          199 -59 -91 vlineto
          -4 -13 -34 -8 -41 hhcurveto
          -70 -24 28 41 hvcurveto
          84 vlineto
          41 17 28 70 vhcurveto
          139 150 160 -468 hlineto
          -54 vmoveto
          -104 62 626 96 54 -674 -54 294 -93 -77 vlineto
          -102 -47 -42 -83 hvcurveto
          -85 vlineto
          -80 53 -45 99 40 34 7 7 18 vhcurveto
          -156 59 48 vlineto
          endchar
        </CharString>
        <CharString name="dvD_NA">
          30 44 224 rmoveto
          -80 50 -44 92 -4 vhcurveto
          -85 -59 -65 -47 -3 -50 31 -37 rlinecurve
          22 -26 40 -4 0 vvcurveto
          43 35 rlineto
          0 -35 6 -15 18 vhcurveto
          -19 24 6 21 35 25 144 103 rcurveline
          -113 59 270 -59 -104 vlineto
          118 callsubr
          -67 -28 29 47 hvcurveto
          152 184 callsubr
        </CharString>
        <CharString name="dvD_R">
          30 453 -212 -34 callgsubr
          -341 443 rmoveto
          -84 55 -44 98 vhcurveto
          1 hlineto
          -152 -172 rlineto
          75 hlineto
          160 181 rlineto
          1 2 1 1 hhcurveto
          -121 59 245 -59 -66 vlineto
          -11 -27 -18 -4 -39 hhcurveto
          -68 -27 29 46 hvcurveto
          146 205 callgsubr
          98 54 -451 -54 292 351 callsubr
        </CharString>
        <CharString name="dvD_RA">
          30 45 232 -11 callgsubr
          -452 -54 292 -93 -75 hlineto
          -100 -48 -41 -83 hvcurveto
          endchar
        </CharString>
        <CharString name="dvD_VA">
          39 204 160 callsubr
          -91 427 rmoveto
          41 18 312 callsubr
          150 100 54 -460 -54 299 56 callsubr
          104 callsubr
        </CharString>
        <CharString name="dvD_YA">
          106 503 649 rmoveto
          -527 -54 186 -75 hlineto
          -58 -2 -48 -25 -74 vvcurveto
          -29 vlineto
          -44 10 -35 45 -17 vhcurveto
          -44 -14 -16 -38 -43 vvcurveto
          -16 vlineto
          -100 66 -35 107 48 42 7 7 32 vhcurveto
          -62 60 -61 callsubr
          vlineto
          -159 hmoveto
          -477 vlineto
          -7 -26 -45 -7 -44 hhcurveto
          -76 -40 13 69 hvcurveto
          13 vlineto
          42 20 28 68 vhcurveto
          31 54 -33 hlineto
          -67 -15 27 41 hvcurveto
          23 vlineto
          50 29 11 50 vhcurveto
          28 120 hlineto
          endchar
        </CharString>
        <CharString name="dvE">
          53 352 72 rmoveto
          -8 -26 -45 -12 -50 hhcurveto
          -76 -24 30 49 hvcurveto
          464 62 callsubr
          -474 -54 93 -464 vlineto
          -93 54 -43 107 52 47 10 10 23 vhcurveto
          endchar
        </CharString>
        <CharString name="dvEcandra">
          53 319 844 rmoveto
          -51 -29 -15 -70 -71 -28 15 51 vhcurveto
          -59 -1 hlineto
          -90 55 -30 103 102 56 30 90 vhcurveto
          1 vlineto
          -30 -772 rmoveto
          -8 -26 -46 -12 -50 hhcurveto
          -69 -26 29 45 hvcurveto
          469 62 callsubr
          -474 -54 93 -470 vlineto
          -84 52 -46 104 53 46 10 10 24 vhcurveto
          endchar
        </CharString>
        <CharString name="dvEight">
          -3 callsubr
        </CharString>
        <CharString name="dvEyelash">
          -128 -24 595 rmoveto
          380 54 -380 hlineto
          380 -321 rmoveto
          -168 hlineto
          -71 -38 -3 53 hvcurveto
          -59 -3 hlineto
          -89 66 -12 102 vhcurveto
          168 hlineto
          endchar
        </CharString>
        <CharString name="dvEyelash_HA">
          249 252 130 rmoveto
          -83 51 -52 118 46 49 4 8 42 vhcurveto
          54 vlineto
          -8 -48 -40 -2 -48 hhcurveto
          -85 -23 34 46 hvcurveto
          57 10 callgsubr
          -36 40 -90 331 callsubr
          16 24 65 vhcurveto
          151 146 97 54 -669 -54 510 -90 -89 hlineto
          -98 -45 -39 -79 hvcurveto
          -10 -69 vlineto
          -71 -38 5 53 hvcurveto
          -60 -4 hlineto
          -89 66 -20 103 vhcurveto
          79 hlineto
          8 -18 14 -14 20 -9 rrcurveto
          -36 -16 -18 -31 -47 vvcurveto
          endchar
        </CharString>
        <CharString name="dvEyelash_YA">
          310 432 525 -102 callsubr
          79 hvcurveto
          55 240 callgsubr
          -69 163 59 callsubr
          -88 vlineto
          -59 -27 -14 -83 vhcurveto
          -68 hlineto
          -71 -38 5 54 hvcurveto
          -59 -4 hlineto
          -89 65 -20 103 vhcurveto
          48 -57 hlineto
          -134 92 -34 103 47 42 6 6 23 -15 callsubr
          -731 -54 vlineto
          endchar
        </CharString>
        <CharString name="dvFive">
          47 callsubr
        </CharString>
        <CharString name="dvFour">
          122 callgsubr
        </CharString>
        <CharString name="dvG">
          -120 190 595 rmoveto
          87 54 -301 24 callgsubr
          endchar
        </CharString>
        <CharString name="dvGA">
          106 503 649 rmoveto
          -527 24 callgsubr
          276 337 callsubr
          97 vlineto
          endchar
        </CharString>
        <CharString name="dvGH">
          -89 375 137 rmoveto
          -6 -19 -62 -12 -45 hhcurveto
          -77 -46 23 71 hvcurveto
          47 -51 callgsubr
          71 vlineto
          45 8 25 0 vhcurveto
          217 54 -381 184 callgsubr
          108 48 57 11 6 25 vhcurveto
          endchar
        </CharString>
        <CharString name="dvGHA">
          119 515 649 rmoveto
          -539 -54 101 hlineto
          23 callgsubr
        </CharString>
        <CharString name="dvGH_MA">
          508 250 119 rmoveto
          -78 -46 23 71 hvcurveto
          47 -51 callgsubr
          71 vlineto
          45 8 25 0 vhcurveto
          416 224 callsubr
          -19 2 -16 5 -14 vhcurveto
          -7 -31 -39 -6 -33 hhcurveto
          306 63 33 callsubr
          -929 184 callgsubr
          112 50 59 13 7 30 vhcurveto
          -15 22 31 -7 40 163 callsubr
        </CharString>
        <CharString name="dvGH_NA">
          498 250 119 rmoveto
          -78 -46 23 71 hvcurveto
          47 -51 callgsubr
          71 vlineto
          45 8 25 0 vhcurveto
          596 130 callgsubr
          -177 vlineto
          -19 3 -17 5 -15 vhcurveto
          -6 -31 -40 -6 -33 hhcurveto
          486 304 rmoveto
          -423 -98 callsubr
          -919 -54 101 vlineto
          48 callsubr
          112 51 59 12 7 30 vhcurveto
          -15 22 29 -7 38 hhcurveto
          87 43 41 80 hvcurveto
          -74 callgsubr
        </CharString>
        <CharString name="dvGH_R">
          -86 370 149 rmoveto
          -5 -41 -26 -5 -49 hhcurveto
          -82 -46 23 71 hvcurveto
          30 -51 callgsubr
          68 vlineto
          45 8 25 0 vhcurveto
          232 54 -396 -54 101 hlineto
          291 callsubr
          -69 77 callsubr
          -34 vlineto
          -103 72 -44 112 12 13 0 1 12 vhcurveto
          -148 -129 rlineto
          79 hlineto
          154 138 rlineto
          endchar
        </CharString>
        <CharString name="dvGH_RA">
          120 516 649 rmoveto
          -540 -54 102 hlineto
          291 callsubr
          -70 vlineto
          -45 178 callsubr
          26 callgsubr
          vlineto
          -159 hmoveto
          -441 vlineto
          52 callgsubr
          endchar
        </CharString>
        <CharString name="dvGH_YA">
          416 250 144 rmoveto
          -78 -46 23 70 hvcurveto
          39 vlineto
          41 18 28 68 vhcurveto
          36 57 -35 hlineto
          -67 1 -14 27 41 vvcurveto
          54 vlineto
          45 8 25 0 vhcurveto
          329 hlineto
          8 callgsubr
          -40 8 -32 15 -24 vhcurveto
          -9 -38 -46 -7 -36 hhcurveto
          288 381 -105 callgsubr
          178 -451 rmoveto
          -61 callsubr
          54 -837 -54 101 vlineto
          291 callsubr
          -55 vlineto
          131 callgsubr
          -46 vvcurveto
          -43 vlineto
          -102 73 -44 112 54 71 13 15 38 vhcurveto
          -23 35 46 -8 49 202 callgsubr
        </CharString>
        <CharString name="dvG_BA">
          307 549 148 callsubr
          -728 159 callsubr
          vlineto
          -91 callgsubr
          276 359 vlineto
          -84 -470 rmoveto
          -42 callsubr
        </CharString>
        <CharString name="dvG_BHA">
          473 190 595 rmoveto
          70 54 -284 24 callgsubr
          329 -137 44 callsubr
          53 vmoveto
          -74 hlineto
          -96 -39 -39 -78 hvcurveto
          -96 -62 callgsubr
        </CharString>
        <CharString name="dvG_BH_YA">
          759 190 595 rmoveto
          63 54 -277 24 callgsubr
          309 -137 rmoveto
          -42 -10 -23 -64 -63 279 callsubr
          63 vhcurveto
          74 hlineto
          144 hmoveto
          26 20 -6 -23 hvcurveto
          -68 vlineto
          170 callgsubr
          67 callsubr
          -535 187 callgsubr
          -57 -24 -15 -74 -1 vhcurveto
          15 -12 -24 8 -37 hhcurveto
          -88 122 hlineto
          80 -40 254 callgsubr
          -24 5 -29 0 vhcurveto
          61 hlineto
          0 -4 28 24 vvcurveto
          40 11 97 callsubr
          -121 -74 vlineto
          -96 -39 -39 -79 hvcurveto
          185 callsubr
          321 172 272 callsubr
          -47 hhcurveto
          -94 66 callgsubr
          endchar
        </CharString>
        <CharString name="dvG_DA">
          293 307 205 rmoveto
          -78 callsubr
          -713 24 callgsubr
          276 340 -93 -76 vlineto
          -100 -47 -41 -83 hvcurveto
          endchar
        </CharString>
        <CharString name="dvG_DHA">
          382 342 595 rmoveto
          0 -9 65 callgsubr
          -57 vlineto
          -101 74 -44 106 49 35 6 8 29 vhcurveto
          -26 callsubr
          -528 24 callgsubr
          276 vlineto
          endchar
        </CharString>
        <CharString name="dvG_DH_VA">
          614 853 165 callgsubr
          -46 hhcurveto
          -99 126 callgsubr
          -17 2 -16 5 -14 vhcurveto
          -8 -35 -38 -5 -33 -45 callgsubr
          -500 24 callgsubr
          276 151 vlineto
          0 -8 -23 -47 vvcurveto
          -51 vlineto
          165 callsubr
          -12 -16 -38 -46 vvcurveto
          -52 322 callgsubr
          46 52 10 11 39 vhcurveto
          -23 25 37 -12 50 hhcurveto
          46 38 9 4 10 hvcurveto
          -83 -39 callgsubr
          -416 -54 258 vlineto
          1 -457 -93 callsubr
        </CharString>
        <CharString name="dvG_DH_YA">
          680 802 525 -46 callsubr
          -500 24 callgsubr
          276 151 vlineto
          0 -8 -23 -47 vvcurveto
          -51 vlineto
          -45 10 -35 44 -17 vhcurveto
          22 callsubr
        </CharString>
        <CharString name="dvG_GA">
          341 738 649 rmoveto
          -762 24 callgsubr
          276 174 -274 vlineto
          -91 callgsubr
          276 337 callsubr
          97 vlineto
          endchar
        </CharString>
        <CharString name="dvG_GHA">
          382 778 649 rmoveto
          -802 24 callgsubr
          276 150 vlineto
          23 callgsubr
        </CharString>
        <CharString name="dvG_JA">
          426 527 258 callgsubr
          -846 24 callgsubr
          276 473 -114 -317 -56 111 vlineto
          -95 callsubr
          endchar
        </CharString>
        <CharString name="dvG_LA">
          506 312 152 rmoveto
          -95 48 -57 116 24 19 2 3 16 vhcurveto
          91 callgsubr
          -926 159 callsubr
          vlineto
          -91 callgsubr
          276 554 -33 callgsubr
          -94 -44 -49 -80 hvcurveto
          endchar
        </CharString>
        <CharString name="dvG_MA">
          455 503 182 33 callsubr
          -876 24 callgsubr
          276 313 -165 -75 vlineto
          -76 callsubr
          129 vlineto
          endchar
        </CharString>
        <CharString name="dvG_NA">
          460 698 423 rmoveto
          -423 -98 callsubr
          -881 159 callsubr
          vlineto
          -91 callgsubr
          276 508 -116 -258 vlineto
          -88 -44 -40 -80 hvcurveto
          -73 callsubr
        </CharString>
        <CharString name="dvG_NNA">
          503 605 595 rmoveto
          137 -595 -39 callgsubr
          -924 24 callgsubr
          276 345 callsubr
          42 50 80 vhcurveto
          -61 346 rmoveto
          107 callsubr
        </CharString>
        <CharString name="dvG_N_YA">
          754 490 415 rmoveto
          -2 11 -27 -43 vvcurveto
          -161 vlineto
          -41 -15 -23 -55 167 callsubr
          169 vlineto
          41 16 23 55 vhcurveto
          445 110 121 callsubr
          -51 -19 -17 -56 -4 vhcurveto
          61 -10 -52 24 -79 hhcurveto
          -168 hlineto
          -88 -43 -39 -80 hvcurveto
          -169 vlineto
          -80 43 -41 88 88 43 41 80 vhcurveto
          162 vlineto
          44 -12 26 1 vvcurveto
          45 hlineto
          52 37 -11 -39 hvcurveto
          -109 vlineto
          -134 93 -37 103 47 41 6 6 24 -15 callsubr
          -1175 159 callsubr
          vlineto
          -91 callgsubr
          276 vlineto
          endchar
        </CharString>
        <CharString name="dvG_R">
          61 callsubr
          endchar
        </CharString>
        <CharString name="dvG_RA">
          40 callgsubr
          endchar
        </CharString>
        <CharString name="dvG_R_YA">
          387 510 525 121 callsubr
          -60 -27 -13 -83 vhcurveto
          -21 -126 hlineto
          -242 -258 rlineto
          79 hlineto
          99 103 36 39 24 27 14 19 rlinecurve
          -79 27 76 -24 83 hhcurveto
          265 callgsubr
          59 callgsubr
          -809 -54 153 -266 vlineto
          -39 -15 -30 -56 -8 -14 1 1 -6 vhcurveto
          -58 225 callgsubr
          268 vlineto
          endchar
        </CharString>
        <CharString name="dvG_SA">
          488 619 12 -86 callgsubr
          161 -291 62 -61 callsubr
          54 -909 24 callgsubr
          276 337 -70 callsubr
          107 333 rmoveto
          -133 hlineto
          -89 callsubr
          137 hlineto
          endchar
        </CharString>
        <CharString name="dvG_VA">
          313 551 492 rmoveto
          144 callgsubr
          -174 vlineto
          -57 callsubr
          -733 159 callsubr
          vlineto
          -91 callgsubr
          276 361 vlineto
          1 -457 -93 callsubr
        </CharString>
        <CharString name="dvG_YA">
          387 509 525 -97 callsubr
          -60 -27 -13 -83 vhcurveto
          -20 -128 hlineto
          -134 92 -72 callgsubr
          -808 159 callsubr
          vlineto
          -91 callgsubr
          276 vlineto
          endchar
        </CharString>
        <CharString name="dvGx">
          -120 190 595 rmoveto
          87 54 -301 24 callgsubr
          -104 -291 -56 callgsubr
          endchar
        </CharString>
        <CharString name="dvGxA">
          108 104 23 -56 callgsubr
          400 626 rmoveto
          -527 24 callgsubr
          276 337 callsubr
          97 vlineto
          endchar
        </CharString>
        <CharString name="dvGx_R">
          61 callsubr
          113 -432 -56 callgsubr
          endchar
        </CharString>
        <CharString name="dvGx_RA">
          40 callgsubr
          108 -111 -56 callgsubr
          endchar
        </CharString>
        <CharString name="dvH">
          45 49 131 rmoveto
          -85 62 -51 117 60 40 6 10 26 vhcurveto
          -59 callsubr
          -466 96 callgsubr
          308 -394 -34 callgsubr
          endchar
        </CharString>
        <CharString name="dvHA">
          45 49 131 rmoveto
          -85 62 -51 117 60 40 6 10 26 vhcurveto
          -59 callsubr
          -466 96 callgsubr
          endchar
        </CharString>
        <CharString name="dvHA_mU">
          45 273 -5 rmoveto
          55 8 -22 -38 -39 -7 -22 -59 hvcurveto
          -75 hlineto
          -27 -20 5 35 -34 hvcurveto
          -56 55 rlineto
          -81 hlineto
          95 -95 rlineto
          -44 40 39 -11 41 hhcurveto
          82 hlineto
          88 34 35 81 81 -33 35 -86 hvcurveto
          -58 hlineto
          -85 -23 34 46 hvcurveto
          57 -37 callgsubr
          -466 96 callgsubr
          -57 vlineto
          -84 51 -52 119 1 vhcurveto
          endchar
        </CharString>
        <CharString name="dvHA_mUU">
          44 47 130 rmoveto
          -56 23 -38 50 -18 vhcurveto
          -25 -15 -10 -26 -41 vvcurveto
          -78 31 -36 85 6 84 1 0 vhcurveto
          56 vlineto
          0 -83 -1 -4 -52 -8 22 36 37 6 22 57 vhcurveto
          27 hlineto
          53 17 -14 -40 34 hvcurveto
          93 -115 rlineto
          75 hlineto
          -133 161 rlineto
          43 -35 -32 21 -69 hhcurveto
          -19 hlineto
          -85 -24 34 46 hvcurveto
          57 vlineto
          41 22 25 67 vhcurveto
          40 hlineto
          63 8 -23 -42 hvcurveto
          -28 58 30 vlineto
          78 -36 40 -89 331 callsubr
          15 24 65 vhcurveto
          151 146 98 54 -465 -54 305 -90 -89 hlineto
          -98 -44 -39 -79 hvcurveto
          -14 vlineto
          -46 125 callsubr
          -19 -31 -47 vvcurveto
          endchar
        </CharString>
        <CharString name="dvHA_mvR">
          91 109 202 rmoveto
          40 22 24 65 vhcurveto
          122 hlineto
          40 22 -6 -39 -40 -22 -5 -40 hvcurveto
          -6 hlineto
          -77 -44 -23 -77 -80 53 -20 87 40 42 6 8 34 hvcurveto
          53 vlineto
          -8 -36 -38 -5 -38 hhcurveto
          -57 -27 5 41 40 22 5 39 hvcurveto
          7 hlineto
          79 42 26 74 73 -42 26 -79 hvcurveto
          -124 hlineto
          -65 -18 23 40 hvcurveto
          2 vlineto
          40 16 24 65 vhcurveto
          195 146 99 54 -511 -54 350 -90 -132 hlineto
          -98 -45 -39 -79 hvcurveto
          -4 vlineto
          -47 18 -28 34 -15 vhcurveto
          -35 -15 -19 -29 -46 vvcurveto
          -214 vlineto
          -87 64 -53 117 60 40 7 10 26 vhcurveto
          53 vlineto
          -11 -37 -33 -5 -54 hhcurveto
          -87 -36 32 55 hvcurveto
          endchar
        </CharString>
        <CharString name="dvH_LA">
          621 427 152 rmoveto
          -95 48 -57 116 24 19 2 3 16 vhcurveto
          91 callgsubr
          -665 -54 507 -33 callgsubr
          -94 -44 -49 -80 hvcurveto
          endchar
        </CharString>
        <CharString name="dvH_MA">
          250 488 180 rmoveto
          -126 21 hlineto
          76 -38 39 -89 vhcurveto
          -30 hlineto
          -66 -18 23 42 hvcurveto
          3 vlineto
          42 16 24 65 vhcurveto
          157 145 129 hlineto
          -469 vmoveto
          -135 62 604 96 54 -670 -54 321 -90 -95 vlineto
          -98 -45 -39 -80 hvcurveto
          -4 vlineto
          -49 17 -29 36 -16 vhcurveto
          -37 -15 -18 -30 -46 vvcurveto
          -77 vlineto
          -79 38 -57 117 vhcurveto
          56 vlineto
          -80 -13 39 39 hvcurveto
          80 vlineto
          40 22 24 66 vhcurveto
          25 hlineto
          62 9 -24 -40 hvcurveto
          -128 59 56 vlineto
          endchar
        </CharString>
        <CharString name="dvH_NA">
          574 422 359 rmoveto
          -50 -226 vlineto
          169 callsubr
          150 146 468 130 callgsubr
          390 64 rmoveto
          -423 -98 callsubr
          -995 -54 307 -90 -89 vlineto
          80 callsubr
          222 -72 91 callsubr
        </CharString>
        <CharString name="dvH_NNA">
          644 461 595 rmoveto
          -286 -265 vlineto
          169 callsubr
          150 146 hlineto
          402 hmoveto
          137 -595 -39 callgsubr
          -1065 -54 307 -90 -89 hlineto
          80 callsubr
          261 -5 hlineto
          154 callsubr
          -61 346 rmoveto
          107 callsubr
        </CharString>
        <CharString name="dvH_R">
          -12 callgsubr
          321 -401 -34 callgsubr
          endchar
        </CharString>
        <CharString name="dvH_RA">
          -12 callgsubr
          endchar
        </CharString>
        <CharString name="dvH_VA">
          432 671 492 rmoveto
          144 callgsubr
          -174 vlineto
          -57 callsubr
          -472 -54 314 vlineto
          1 -457 -93 callsubr
        </CharString>
        <CharString name="dvH_YA">
          238 391 141 rmoveto
          -42 hlineto
          7 11 3 15 18 vvcurveto
          23 vlineto
          76 -40 39 -93 vhcurveto
          -30 hlineto
          -65 -18 24 42 hvcurveto
          3 vlineto
          41 16 25 65 vhcurveto
          158 137 124 -444 hlineto
          -5 -19 -30 -5 -36 hhcurveto
          -143 hmoveto
          -56 141 vlineto
          40 31 5 5 16 hvcurveto
          -103 61 603 97 54 -658 -54 314 -82 -96 vlineto
          -98 -45 -39 -81 hvcurveto
          -3 vlineto
          -48 18 -30 34 -16 vhcurveto
          -36 -16 -18 -30 -47 vvcurveto
          -83 vlineto
          -79 38 -57 116 vhcurveto
          56 vlineto
          -79 -13 39 39 hvcurveto
          86 vlineto
          41 21 25 68 vhcurveto
          25 hlineto
          65 9 -25 -41 hvcurveto
          -25 vlineto
          -28 -14 -10 -37 vhcurveto
          endchar
        </CharString>
        <CharString name="dvI">
          25 110 171 rmoveto
          -59 -236 59 101 hlineto
          -5 23 32 -3 37 hhcurveto
          109 45 41 82 hvcurveto
          40 vlineto
          79 -47 42 -100 vhcurveto
          -22 hlineto
          -66 235 callsubr
          5 vlineto
          41 18 24 66 vhcurveto
          141 147 93 54 -445 -54 290 -91 -79 hlineto
          -98 -47 -40 -80 hvcurveto
          -6 vlineto
          -80 47 -41 98 vhcurveto
          22 hlineto
          68 18 -27 -40 hvcurveto
          -38 vlineto
          -44 -28 -24 -68 -36 -28 3 5 -25 vhcurveto
          endchar
        </CharString>
        <CharString name="dvII">
          25 323 649 rmoveto
          -16 32 -19 44 33 vvcurveto
          52 37 16 42 13 13 -1 -2 11 vhcurveto
          55 vlineto
          1 -12 -15 3 -22 hhcurveto
          -66 -63 -31 -88 -42 18 -40 17 -32 14 callgsubr
        </CharString>
        <CharString name="dvII_Anusvara">
          25 390 707 rmoveto
          27 10 16 21 21 -10 16 -27 -28 -9 -16 -21 -21 9 -16 28 hvcurveto
          -67 -58 rmoveto
          -18 33 -19 49 35 vvcurveto
          54 37 18 45 12 13 -1 -2 11 vhcurveto
          53 vlineto
          2 -12 -15 3 -20 hhcurveto
          -70 -63 -32 -90 -44 18 -44 19 -34 14 callgsubr
        </CharString>
        <CharString name="dvJ">
          -33 422 649 rmoveto
          -446 -54 446 hlineto
          -114 vmoveto
          -325 -56 111 hlineto
          -101 callsubr
          152 hlineto
          endchar
        </CharString>
        <CharString name="dvJA">
          177 278 357 62 callgsubr
        </CharString>
        <CharString name="dvJH">
          24 345 142 rmoveto
          252 callsubr
          172 52 -294 hlineto
          116 callgsubr
          144 54 -511 -54 305 -90 -84 hlineto
          1 callsubr
          89 vlineto
          186 callgsubr
          endchar
        </CharString>
        <CharString name="dvJHA">
          226 199 73 callsubr
          -646 -54 298 -90 -79 hlineto
          -98 -47 -40 -80 hvcurveto
          147 callsubr
        </CharString>
        <CharString name="dvJH_MA">
          612 450 312 rmoveto
          -257 hlineto
          116 callgsubr
          317 227 callsubr
          210 -130 33 callsubr
          -1033 -54 305 -90 -84 hlineto
          1 callsubr
          89 vlineto
          186 callgsubr
          252 callsubr
          135 -79 260 callgsubr
        </CharString>
        <CharString name="dvJH_NA">
          617 465 359 rmoveto
          -47 -272 vlineto
          116 callgsubr
          512 130 callgsubr
          390 64 rmoveto
          -423 -98 callsubr
          -1038 -54 305 -90 -84 vlineto
          1 callsubr
          89 vlineto
          186 callgsubr
          252 callsubr
          150 -78 91 callsubr
        </CharString>
        <CharString name="dvJH_R">
          69 527 200 rmoveto
          -262 -288 rlineto
          73 hlineto
          106 115 37 40 43 56 3 8 rlinecurve
          -181 58 rmoveto
          33 -10 23 -19 15 vhcurveto
          210 52 -328 hlineto
          -64 -17 25 41 hvcurveto
          6 vlineto
          41 18 24 65 vhcurveto
          187 146 138 54 -550 -54 350 -90 -125 hlineto
          -98 -47 -40 -80 hvcurveto
          -7 vlineto
          -81 47 -40 95 vhcurveto
          4 hlineto
          65 17 -28 -39 hvcurveto
          -47 vlineto
          -41 -23 -28 -68 -25 -27 2 8 -26 vhcurveto
          71 -59 -216 59 88 vlineto
          -6 26 23 -3 34 hhcurveto
          104 44 41 83 hvcurveto
          endchar
        </CharString>
        <CharString name="dvJH_RA">
          262 346 189 rmoveto
          33 -10 23 -19 15 vhcurveto
          178 hlineto
          1 -94 -231 -254 rlineto
          73 hlineto
          106 115 37 40 22 36 3 7 rlinecurve
          -1 vlineto
          -1 -10 -2 -23 -27 vvcurveto
          -51 59 597 97 54 -683 -54 350 -90 -125 vlineto
          -98 -47 -40 -80 hvcurveto
          -7 vlineto
          -81 49 -40 94 vhcurveto
          3 hlineto
          65 17 -28 -39 hvcurveto
          -44 vlineto
          -42 -23 -28 -68 -25 -27 3 7 -26 vhcurveto
          71 -59 -216 59 89 vlineto
          -7 26 23 -3 34 hhcurveto
          104 44 42 82 hvcurveto
          42 305 rmoveto
          146 112 -283 -301 vlineto
          -64 1 -17 24 41 vvcurveto
          6 vlineto
          41 18 24 65 vhcurveto
          endchar
        </CharString>
        <CharString name="dvJH_YA">
          539 470 384 rmoveto
          -72 -277 vlineto
          116 callgsubr
          249 hlineto
          -65 callgsubr
          -60 -27 -13 -83 vhcurveto
          171 141 -105 callgsubr
          -545 -422 rmoveto
          186 callgsubr
          252 callsubr
          155 -4 hlineto
          -134 92 -72 callgsubr
          -960 -54 305 -90 -84 vlineto
          1 callsubr
          vlineto
          endchar
        </CharString>
        <CharString name="dvJ_BA">
          399 641 283 callgsubr
          -43 -34 -8 -16 -25 hvcurveto
          -355 -56 111 hlineto
          -101 callsubr
          138 hlineto
          -5 -15 -3 -16 -19 234 callgsubr
          -820 -54 665 vlineto
          -84 -470 rmoveto
          -42 callsubr
        </CharString>
        <CharString name="dvJ_DA">
          385 399 205 rmoveto
          -78 callsubr
          -805 -54 646 -93 -76 hlineto
          -40 -32 -7 -13 -23 hvcurveto
          -354 -56 111 hlineto
          -68 callsubr
          -178 vlineto
          -48 -25 76 callgsubr
          8 -29 vhcurveto
          -58 vlineto
          -7 26 24 -5 43 313 callgsubr
          86 hvcurveto
          181 -7 callsubr
          136 hlineto
          -5 -14 -2 -17 -19 vvcurveto
          endchar
        </CharString>
        <CharString name="dvJ_DDA">
          377 701 -17 callgsubr
          -797 -54 634 -90 -74 hlineto
          -44 -34 -8 -16 -24 hvcurveto
          -337 -56 111 hlineto
          -101 callsubr
          125 hlineto
          -3 -12 -2 -14 -16 vvcurveto
          -14 callgsubr
        </CharString>
        <CharString name="dvJ_JA">
          537 638 357 5 callsubr
        </CharString>
        <CharString name="dvJ_JHA">
          563 537 73 callsubr
          -984 -54 636 -90 -79 hlineto
          -44 -33 -8 -16 -24 hvcurveto
          -335 -56 111 hlineto
          -101 callsubr
          123 hlineto
          -3 -12 -2 -14 -16 vvcurveto
          147 callsubr
        </CharString>
        <CharString name="dvJ_J_NYA">
          597 422 481 rmoveto
          -325 -56 111 hlineto
          -101 callsubr
          152 hlineto
          413 168 rmoveto
          -114 -326 -54 119 vlineto
          -23 callgsubr
          144 -427 62 -61 callsubr
          54 -1018 -54 hlineto
          endchar
        </CharString>
        <CharString name="dvJ_J_VA">
          764 1002 102 callsubr
          -41 -32 -9 -15 -25 hvcurveto
          -714 19 callsubr
          138 hlineto
          -6 -15 -3 -18 -19 vvcurveto
          -174 vlineto
          -57 callsubr
          -1184 -54 1026 vlineto
          1 -457 -93 callsubr
        </CharString>
        <CharString name="dvJ_J_YA">
          838 959 525 -97 callsubr
          -51 -20 -17 -57 -4 vhcurveto
          68 -2 -41 28 -87 hhcurveto
          -594 19 callsubr
          55 hlineto
          67 16 -11 -47 hvcurveto
          -113 vlineto
          -134 92 -72 callgsubr
          -1258 -54 vlineto
          endchar
        </CharString>
        <CharString name="dvJ_KA">
          560 615 128 callgsubr
          -40 -31 -8 -15 -23 hvcurveto
          -349 -56 111 hlineto
          -101 callsubr
          136 hlineto
          -5 -14 -2 -16 -17 -75 callsubr
          -981 -54 vlineto
          endchar
        </CharString>
        <CharString name="dvJ_MA">
          547 656 348 callgsubr
          -190 -248 -98 callgsubr
          190 -376 rmoveto
          -98 callsubr
          -968 -54 619 219 callgsubr
          -17 -15 -1 -3 -13 hvcurveto
          38 -15 -46 17 -69 hhcurveto
          -248 -56 111 hlineto
          -101 callsubr
          67 hlineto
          45 27 -6 -18 12 hvcurveto
          -25 -19 -11 -31 -41 235 callgsubr
        </CharString>
        <CharString name="dvJ_NA">
          563 801 423 rmoveto
          -423 -98 callsubr
          -984 -54 825 343 callsubr
          vlineto
          -46 -35 -11 -22 -22 hvcurveto
          23 -20 -37 12 -49 hhcurveto
          -237 -56 111 hlineto
          -101 callsubr
          67 hlineto
          46 22 -13 -23 9 hvcurveto
          -2 -10 -1 -10 -12 vvcurveto
          -73 callsubr
        </CharString>
        <CharString name="dvJ_NY">
          19 497 649 rmoveto
          -521 -54 521 hlineto
          -114 vmoveto
          -356 -54 119 hlineto
          -23 callgsubr
          174 hlineto
          endchar
        </CharString>
        <CharString name="dvJ_NYA">
          229 467 595 rmoveto
          -114 -326 -54 119 vlineto
          -23 callgsubr
          144 -427 62 -61 callsubr
          54 -650 -54 hlineto
          endchar
        </CharString>
        <CharString name="dvJ_NY_YA">
          529 260 427 rmoveto
          -23 callgsubr
          56 hlineto
          57 23 -7 -46 hvcurveto
          -118 vlineto
          -134 81 -37 103 68 36 16 24 20 vhcurveto
          -125 67 callsubr
          -949 -54 541 vlineto
          56 16 -27 -43 hvcurveto
          -52 285 callsubr
          64 -63 16 -66 vhcurveto
          -243 -54 hlineto
          379 -167 rmoveto
          90 vlineto
          81 291 callgsubr
          57 vlineto
          40 -13 22 -15 8 vhcurveto
          144 -347 hlineto
          -72 -4 -29 -33 -89 hhcurveto
          -95 -30 37 80 hvcurveto
          endchar
        </CharString>
        <CharString name="dvJ_R">
          -26 139 24 callsubr
          endchar
        </CharString>
        <CharString name="dvJ_RA">
          182 422 12 callsubr
          endchar
        </CharString>
        <CharString name="dvJ_TA">
          416 409 122 rmoveto
          -67 callgsubr
          -837 -54 678 -105 vlineto
          173 callgsubr
          -39 -31 -8 -14 -24 hvcurveto
          -368 -56 111 hlineto
          -101 callsubr
          149 hlineto
          -7 -16 -3 -19 -20 vvcurveto
          endchar
        </CharString>
        <CharString name="dvJ_TTA">
          372 470 201 callsubr
          -791 -54 639 -93 -58 hlineto
          -40 -31 -7 -14 -24 hvcurveto
          -365 -56 111 hlineto
          -101 callsubr
          147 hlineto
          -5 -15 -3 -18 -20 176 callgsubr
        </CharString>
        <CharString name="dvJ_VA">
          405 643 102 callsubr
          -41 -32 -9 -15 -25 hvcurveto
          -355 -56 111 hlineto
          -101 callsubr
          139 hlineto
          -6 -15 -3 -18 -19 vvcurveto
          -174 vlineto
          -57 callsubr
          -825 -54 667 vlineto
          1 -457 -93 callsubr
        </CharString>
        <CharString name="dvJ_YA">
          477 599 525 -103 callsubr
          90 240 callgsubr
          -69 127 59 callsubr
          -52 285 callsubr
          63 -61 17 -68 vhcurveto
          -236 -56 111 hlineto
          -101 callsubr
          54 hlineto
          58 26 -6 -47 hvcurveto
          -118 vlineto
          -134 92 -72 callgsubr
          -898 -54 vlineto
          endchar
        </CharString>
        <CharString name="dvJx">
          -33 84 -106 rmoveto
          30 10 18 263 callsubr
          -30 322 callsubr
          30 hvcurveto
          338 755 rmoveto
          -446 -54 446 hlineto
          -114 vmoveto
          -325 -56 111 hlineto
          -101 callsubr
          152 hlineto
          endchar
        </CharString>
        <CharString name="dvJxA">
          177 38 -87 rmoveto
          189 callsubr
          -11 -18 -23 -23 10 -17 31 hvcurveto
          240 444 62 callgsubr
        </CharString>
        <CharString name="dvJx_JxA">
          537 29 3 rmoveto
          -30 126 callsubr
          155 callsubr
          hvcurveto
          362 -81 rmoveto
          30 11 18 263 callsubr
          -31 126 callsubr
          hvcurveto
          247 435 5 callsubr
        </CharString>
        <CharString name="dvJx_R">
          2 155 24 callsubr
          -413 -455 -56 callgsubr
          endchar
        </CharString>
        <CharString name="dvJx_RA">
          198 438 12 callsubr
          -248 -447 -56 callgsubr
          endchar
        </CharString>
        <CharString name="dvJx_YA">
          477 29 -85 216 callsubr
          23 193 callsubr
          192 callgsubr
          570 610 -103 callsubr
          90 240 callgsubr
          -69 127 59 callsubr
          -52 285 callsubr
          63 -61 17 -68 vhcurveto
          -236 -56 111 hlineto
          -68 callsubr
          -176 289 callgsubr
          -27 5 7 -29 vhcurveto
          -57 vlineto
          -7 26 24 -5 43 313 callgsubr
          86 hvcurveto
          178 -7 callsubr
          54 hlineto
          58 26 -6 -47 hvcurveto
          -118 vlineto
          -134 92 -72 callgsubr
          -898 -54 vlineto
          endchar
        </CharString>
        <CharString name="dvK">
          27 323 439 rmoveto
          -439 -52 callgsubr
          461 -286 54 578 -54 -231 -101 vlineto
          7 20 31 3 25 hhcurveto
          104 29 -51 -74 hvcurveto
          -23 -59 22 vlineto
          43 -12 27 -64 -24 -27 -2 -7 -23 vhcurveto
          endchar
        </CharString>
        <CharString name="dvKA">
          207 262 595 rmoveto
          -286 54 628 84 callgsubr
          -7 vhcurveto
          58 vlineto
          -1 6 7 0 6 hhcurveto
          55 12 29 39 hvcurveto
          180 vlineto
          41 -20 28 -63 -25 -21 -2 -7 -21 vhcurveto
          -440 -52 callgsubr
          endchar
        </CharString>
        <CharString name="dvKH">
          150 438 252 -24 callgsubr
        </CharString>
        <CharString name="dvKHA">
          355 379 252 -19 callsubr
          -775 -54 272 vlineto
          -101 callgsubr
          284 -54 callgsubr
          270 callsubr
        </CharString>
        <CharString name="dvKH_KHA">
          901 175 callgsubr
          702 -60 rmoveto
          -5 -13 -31 -4 -33 hhcurveto
          51 callgsubr
          30 26 -5 -5 21 vhcurveto
          -214 -185 rmoveto
          -80 39 -44 96 34 23 3 6 22 93 callgsubr
          -1322 -54 272 vlineto
          -101 callgsubr
          486 hlineto
          0 12 -42 callgsubr
          -121 vlineto
          -55 -22 -33 -65 -23 -25 3 3 -18 vhcurveto
          56 vlineto
          80 -40 44 -98 -98 -39 -44 -80 vhcurveto
          -126 vlineto
          -88 39 -36 98 33 27 4 9 20 vhcurveto
          -105 16 89 -40 118 hhcurveto
          52 53 7 9 35 hvcurveto
          51 callsubr
          -60 hhcurveto
          -100 -66 32 90 hvcurveto
          91 vlineto
          -4 18 22 -3 28 hhcurveto
          98 47 47 96 -31 callsubr
          47 -12 23 0 vhcurveto
          285 -102 hlineto
          5 -23 -29 5 -29 hhcurveto
          -95 -38 -45 -80 hvcurveto
          endchar
        </CharString>
</ttFont>
